<?xml version="1.0" encoding="utf-8"?>
<!-- Generator: Adobe Illustrator 27.5.0, SVG Export Plug-In . SVG Version: 6.00 Build 0)  -->
<svg version="1.1" id="레이어_1" xmlns="http://www.w3.org/2000/svg" xmlns:xlink="http://www.w3.org/1999/xlink" x="0px"
	 y="0px" viewBox="0 0 24 24" style="enable-background:new 0 0 24 24;" xml:space="preserve">
<style type="text/css">
	.st0{fill:#FFFFFF;}
</style>
	<g id="그룹_90" transform="translate(0 0)">
		<g>
			<g id="그룹_89" transform="translate(0 0)">
				<path id="패스_309" class="st0" d="M17.8,13c0-1.7,0.9-3.2,2.3-4.1c-0.9-1.3-2.4-2.1-3.9-2.1c-1.6-0.2-3.3,1-4.1,1
					c-0.9,0-2.2-1-3.6-0.9C6.7,6.9,5.1,7.9,4.2,9.5c-1.9,3.3-0.5,8.1,1.3,10.8c0.9,1.3,2,2.8,3.4,2.7c1.4-0.1,1.9-0.9,3.5-0.9
					S14.5,23,16,23c1.5,0,2.4-1.3,3.3-2.6c0.7-0.9,1.2-2,1.5-3C19,16.6,17.8,14.9,17.8,13"/>
				<path id="패스_310" class="st0" d="M15.2,5c0.8-1,1.2-2.2,1.1-3.4c-1.2,0.1-2.3,0.7-3.2,1.6c-0.8,0.9-1.2,2.1-1.1,3.3
					C13.2,6.5,14.4,6,15.2,5"/>
			</g>
		</g>
	</g>
</svg>
