<?xml version="1.0" encoding="utf-8"?>
<!-- Generator: Adobe Illustrator 27.5.0, SVG Export Plug-In . SVG Version: 6.00 Build 0)  -->
<svg version="1.1" id="레이어_1" xmlns="http://www.w3.org/2000/svg" xmlns:xlink="http://www.w3.org/1999/xlink" x="0px"
	 y="0px" viewBox="0 0 34 46" style="enable-background:new 0 0 34 46;" xml:space="preserve">
<style type="text/css">
	.st0{fill:#393939;}
</style>
<path class="st0" d="M28,0H6C2.7,0,0,2.7,0,6v34c0,3.3,2.7,6,6,6h22c3.3,0,6-2.7,6-6V6C34,2.7,31.3,0,28,0z M15.5,37h-6
	C8.7,37,8,36.3,8,35.5S8.7,34,9.5,34h6c0.8,0,1.5,0.7,1.5,1.5S16.3,37,15.5,37z M24.5,29h-15C8.7,29,8,28.3,8,27.5S8.7,26,9.5,26h15
	c0.8,0,1.5,0.7,1.5,1.5S25.3,29,24.5,29z M24.5,21h-15C8.7,21,8,20.3,8,19.5S8.7,18,9.5,18h15c0.8,0,1.5,0.7,1.5,1.5
	S25.3,21,24.5,21z M24.5,13h-15C8.7,13,8,12.3,8,11.5S8.7,10,9.5,10h15c0.8,0,1.5,0.7,1.5,1.5S25.3,13,24.5,13z"/>
</svg>
