<?xml version="1.0" encoding="utf-8"?>
<!-- Generator: Adobe Illustrator 27.5.0, SVG Export Plug-In . SVG Version: 6.00 Build 0)  -->
<svg version="1.1" id="레이어_1" xmlns="http://www.w3.org/2000/svg" xmlns:xlink="http://www.w3.org/1999/xlink" x="0px"
	 y="0px" viewBox="0 0 24 24" style="enable-background:new 0 0 24 24;" xml:space="preserve">
<style type="text/css">
	.st0{fill:#FFFFFF;}
</style>
<g id="그룹_94" transform="translate(0 0)">
	<g>
		<g id="그룹_93" transform="translate(0 0)">
			<path id="패스_315" class="st0" d="M3.7,2.8C3.6,3,3.6,3.2,3.6,3.4v17.2c0,0.2,0,0.4,0.1,0.6l9.2-9.2L3.7,2.8z"/>
			<path id="패스_316" class="st0" d="M20.7,10.9L17.5,9l-3,3l3,3l3.3-1.9c0.6-0.2,1-0.9,0.8-1.5C21.4,11.3,21.1,11,20.7,10.9"/>
			<path id="패스_317" class="st0" d="M4.4,22c0.4,0.1,0.8,0,1.1-0.2l10.9-6.2l-2.8-2.8L4.4,22z"/>
			<path id="패스_318" class="st0" d="M16.5,8.5L5.6,2.3C5.3,2.1,4.9,2,4.5,2l9.2,9.2L16.5,8.5z"/>
		</g>
	</g>
</g>
</svg>
