<svg xmlns="http://www.w3.org/2000/svg" xmlns:xlink="http://www.w3.org/1999/xlink" width="165.153" height="184.483" viewBox="0 0 165.153 184.483">
  <defs>
    <filter id="패스_332" x="0" y="0" width="165.153" height="184.483" filterUnits="userSpaceOnUse">
      <feOffset dx="3" dy="6" input="SourceAlpha"/>
      <feGaussianBlur stdDeviation="10" result="blur"/>
      <feFlood flood-opacity="0.161"/>
      <feComposite operator="in" in2="blur"/>
      <feComposite in="SourceGraphic"/>
    </filter>
  </defs>
  <g id="그룹_3100" data-name="그룹 3100" transform="translate(-1293 -7298)">
    <g transform="matrix(1, 0, 0, 1, 1293, 7298)" filter="url(#패스_332)">
      <path id="패스_332-2" data-name="패스 332" d="M82.194,5.037a89.588,89.588,0,0,0-59.235,0A46.137,46.137,0,0,1,2.064,23.19,90.373,90.373,0,0,0,52.576,124.483a90.282,90.282,0,0,0,52.577-82.044,90.622,90.622,0,0,0-2.064-19.25A46.133,46.133,0,0,1,82.194,5.037" transform="translate(27 24)" fill="#1b91ce"/>
    </g>
    <path id="패스_327" data-name="패스 327" d="M67.551,70.9l-3.225-12.99a9.664,9.664,0,0,1-5.749-10.33c.8-6.582-1.124-9.044-1.143-9.067a1.081,1.081,0,0,1,.513-1.739c.354-.106.723-.226,1.1-.348,2.885-.937,7.714-2.5,9.454,2.814,1.575,4.819,6.848,9.941,11.908,11a20.157,20.157,0,0,1-2.674-4.493,28.152,28.152,0,0,0-7.865-10.489c-4.97-4.124-8.61-2.125-11.536-.518-.342.187-.668.367-.981.529a1.082,1.082,0,0,1-1.2-.138,28.908,28.908,0,0,0-6.574-3.849l.907-1.964a34,34,0,0,1,6.494,3.7l.312-.171c3.127-1.719,7.854-4.316,13.959.749A30.041,30.041,0,0,1,79.682,44.8c1.288,2.641,2.218,4.55,4.47,5.626a1.082,1.082,0,0,1-.285,2.042c-5.837.994-14.713-4.275-17.421-12.555-.952-2.912-2.839-2.683-6.6-1.47.678,1.547,1.473,4.526.88,9.4a7.475,7.475,0,0,0,4.856,8.236,1.08,1.08,0,0,1,.708.765l3.361,13.538ZM27.738,55.407l.44-.5c-1.146-1-9.107-10.8-9.8-13.261a5.6,5.6,0,0,1,3.032-.235c1.134.115,2.207.224,2.928-.541a2.378,2.378,0,0,0,.46-2.045C24.507,37,23.49,32.545,20.414,30.5a6.792,6.792,0,0,0-5.55-.825,1.081,1.081,0,0,0-.813.866c-.566,3.241-1.7,7.141-2.534,7.787a10.156,10.156,0,0,0-2.2,3.117,10.574,10.574,0,0,1-1.341,2.1C4.94,42.6,5.355,41.011,5.513,40.408c.692-2.643,1.049-11.2-.123-12.737A15.962,15.962,0,0,0,3.978,26.2c1.5.239,3.1.231,4.093-.772l.177-.183c3.813-3.957,11.7-9.612,21.654-3.037a52.921,52.921,0,0,0,8.127,4.187l.862-1.985a50.983,50.983,0,0,1-7.8-4.007c-8.348-5.513-17.015-4.327-24.4,3.341l-.161.165c-.592.6-3.078,0-4.016-.232-.41-.1-.76-.184-1.012-.225a1.231,1.231,0,0,0-1.364.627c-.478.953.292,1.7,2.153,3.5.547.529,1.167,1.129,1.339,1.346.487,1,.538,8.079-.211,10.937-.712,2.716.784,4.832,4.1,5.806,1.685.5,2.706-1.376,3.694-3.186a9.4,9.4,0,0,1,1.625-2.44c1.668-1.286,2.766-6.091,3.208-8.392a4.4,4.4,0,0,1,3.169.653c2.366,1.574,3.2,5.327,3.451,6.866.01.063.017.115.02.16-.266.006-.712-.037-1.054-.071a6.705,6.705,0,0,0-4.847.831,1.533,1.533,0,0,0-.614,1.361c.115,3.187,10.164,14.852,10.783,15.234ZM59.424,74.319,58.06,63.031a1.079,1.079,0,0,0-.626-.855C44.6,56.34,47.825,46.927,47.968,46.534a1.081,1.081,0,0,0-1.336-1.408c-8.532,2.661-11.115-1.45-11.213-1.616a1.084,1.084,0,0,0-.848-.543c-10.786-.93-11.271.145-11.561.788a1.32,1.32,0,0,0,.315,1.5l6.19,7.464,1.665-1.38-5.405-6.52a68.262,68.262,0,0,1,8.115.257c1.009,1.261,4.3,4.309,11.63,2.59-.485,3.514-.123,11.151,10.465,16.216l1.292,10.691ZM10.6,30.474,8.785,29.3,7.8,30.82,9.62,31.994Zm34.964,6.535c-.03-.061-2.981-6.111-3.657-8.953-.344-1.448,3.228-4.49,5.939-6.129L46.73,20.075c-1.305.788-7.775,4.9-6.925,8.481.73,3.074,3.692,9.147,3.818,9.4Zm2.3,4.754a2.611,2.611,0,0,0,2.06-3.138L47.83,29.181c2.3-1,8.111-3.805,9.119-7.182,1.077-3.609-2.744-5.907-5.227-6.718C40.8,10.06,37.545,10,36.578,10.424a26.912,26.912,0,0,0-2.657,1.5c-1.782,1.085-5.1,3.105-6.246,2.772a28.925,28.925,0,0,1-4.467-2.272c-2.323-1.327-3.679-2.082-4.564-2.16l-.194,2.155a23.149,23.149,0,0,1,3.684,1.884,28.85,28.85,0,0,0,4.935,2.471c1.92.56,4.628-.96,7.977-3a27.035,27.035,0,0,1,2.391-1.367c1.2-.36,7.908,2.219,13.416,4.855a1.141,1.141,0,0,0,.138.055c.046.015,4.642,1.524,3.885,4.061-.671,2.25-5.688,4.961-8.692,6.142a1.081,1.081,0,0,0-.661,1.24L47.809,39.1a.447.447,0,0,1-.373.543,1.073,1.073,0,0,0-.208.051l-4.38,1.548.721,2.039ZM37.081,6.683a5.763,5.763,0,1,0-5.692,4.855,5.774,5.774,0,0,0,5.692-4.855M31.956,2.209a3.594,3.594,0,1,1-.579-.046,3.665,3.665,0,0,1,.579.046" transform="translate(1330 7342)" fill="#fff"/>
  </g>
</svg>
