<svg xmlns="http://www.w3.org/2000/svg" xmlns:xlink="http://www.w3.org/1999/xlink" width="165.153" height="184.483" viewBox="0 0 165.153 184.483">
  <defs>
    <filter id="패스_354" x="0" y="0" width="165.153" height="184.483" filterUnits="userSpaceOnUse">
      <feOffset dx="3" dy="6" input="SourceAlpha"/>
      <feGaussianBlur stdDeviation="10" result="blur"/>
      <feFlood flood-opacity="0.161"/>
      <feComposite operator="in" in2="blur"/>
      <feComposite in="SourceGraphic"/>
    </filter>
  </defs>
  <g id="그룹_3099" data-name="그룹 3099" transform="translate(-880.424 -7298)">
    <g transform="matrix(1, 0, 0, 1, 880.42, 7298)" filter="url(#패스_354)">
      <path id="패스_354-2" data-name="패스 354" d="M82.194,5.037a89.588,89.588,0,0,0-59.235,0A46.137,46.137,0,0,1,2.064,23.19,90.373,90.373,0,0,0,52.576,124.483a90.282,90.282,0,0,0,52.577-82.044,90.622,90.622,0,0,0-2.064-19.25A46.133,46.133,0,0,1,82.194,5.037" transform="translate(27 24)" fill="#1b91ce"/>
    </g>
    <path id="패스_329" data-name="패스 329" d="M49.892,12.42c-.03,0-.144.007-.173.01a7.517,7.517,0,0,1-7.426-7.488A4.943,4.943,0,0,0,37.361,0H17.474a4.943,4.943,0,0,0-4.933,4.942,7.515,7.515,0,0,1-7.433,7.485c-.03,0-.136-.007-.166-.007A4.948,4.948,0,0,0,0,17.363V47.116a4.935,4.935,0,0,0,2.554,4.322L25.022,63.867a4.931,4.931,0,0,0,4.788,0L52.277,51.439a4.929,4.929,0,0,0,2.549-4.323V17.363a4.943,4.943,0,0,0-4.933-4.942m2.514,34.7a2.512,2.512,0,0,1-1.3,2.205L28.635,61.753a2.55,2.55,0,0,1-2.439,0L3.723,49.319a2.516,2.516,0,0,1-1.3-2.2V17.363a2.523,2.523,0,0,1,2.51-2.523h0c.062,0,.131.009.206.009h0A9.943,9.943,0,0,0,14.96,4.942a2.521,2.521,0,0,1,2.514-2.524H37.361a2.521,2.521,0,0,1,2.514,2.524,9.945,9.945,0,0,0,9.833,9.906c.06,0,.127,0,.207-.01a2.522,2.522,0,0,1,2.491,2.524ZM48.489,18.538A16.8,16.8,0,0,1,35.973,6.107,1.21,1.21,0,0,0,34.8,5.176H20.039a1.21,1.21,0,0,0-1.176.931A16.8,16.8,0,0,1,6.345,18.538a1.21,1.21,0,0,0-.939,1.179v26.3a1.21,1.21,0,0,0,.624,1.059l20.8,11.5a1.212,1.212,0,0,0,1.171,0L48.8,47.071a1.21,1.21,0,0,0,.625-1.059v-26.3a1.211,1.211,0,0,0-.939-1.179M27.413,56.132,14.518,49c1.648-1.986,3.39-5.136,3.39-7.66a26.746,26.746,0,0,1,1.517-8.266,4.164,4.164,0,0,0,1.671,2.26l.76-1.421c-.651-.348-1.169-1.95-1.41-3.247a11.067,11.067,0,0,1,.579-1,4.789,4.789,0,0,0,1.721,2.974l.836-1.379c-.616-.373-1.04-1.933-1.217-3.225a11.029,11.029,0,0,1,1.08-.972A4.813,4.813,0,0,0,24.8,30.247l.993-1.269c-.506-.4-.748-1.716-.811-2.921a10.717,10.717,0,0,1,6.708-1.084l.682.152.472-.515a8.978,8.978,0,0,1,3.744-2.494,4.289,4.289,0,0,1-1.846,2.335l-1.271.677.887,1.135c4.537,5.805,8.152,11.991,7.747,13.219C40.9,41.7,40.088,41.94,39.867,41.959c-.475.025-1.017-.556-1.3-.917-.312-.392-.6-.767-.871-1.122-1.713-2.24-3.067-4.009-6.445-4.628-1.275-.234-1.375-2.062-1.383-2.425-.027-1.464.6-2.846,1.366-3.017L30.7,27.489c-2.2.49-3.3,3.1-3.256,5.424a4.846,4.846,0,0,0,2.32,4.4l-1.1,18.125ZM47.009,45.3,31.174,54.053l.972-16.012c1.52.6,2.344,1.675,3.625,3.349.281.367.576.754.9,1.158a3.96,3.96,0,0,0,3.409,1.821c1.5-.131,2.865-1.352,4.157-3.733,1.474-2.716-3.552-10.1-7.2-14.87a8.714,8.714,0,0,0,2.387-5.093l.127-1.344-1.35.022A10.526,10.526,0,0,0,31.524,22.5a13.016,13.016,0,0,0-12.191,5.354c-2.407,3.254-3.844,9.414-3.844,13.489,0,1.916-1.7,4.872-3.132,6.465L7.825,45.3V20.655A19.26,19.26,0,0,0,20.971,7.595H33.864a19.258,19.258,0,0,0,13.145,13.06ZM34.668,32.053l-.477-2.371,2.228-.449L36.9,31.6Z" transform="translate(930 7347.999)" fill="#fff"/>
  </g>
</svg>
