<svg xmlns="http://www.w3.org/2000/svg" width="1200" height="340" viewBox="0 0 1200 340">
  <g id="그룹_331" data-name="그룹 331" transform="translate(-360 -2374)">
    <text id="RAISE" transform="translate(637 2536)" fill="#fff" font-size="40" font-family="SUIT-Heavy, SUIT" font-weight="800"><tspan x="0" y="0">RAISE</tspan></text>
    <text id="Best_NFT_Horse" data-name="Best NFT Horse" transform="translate(700 2584)" fill="#fff" font-size="38" font-family="SUIT-Medium, SUIT" font-weight="500"><tspan x="-137.617" y="0">Best NFT Horse</tspan></text>
    <text id="Prize_Money" data-name="Prize Money" transform="translate(1220 2584)" fill="#fff" font-size="38" font-family="SUIT-Medium, SUIT" font-weight="500"><tspan x="-107.331" y="0">Prize Money</tspan></text>
    <text id="EARN" transform="translate(1160 2536)" fill="#fff" font-size="40" font-family="SUIT-Heavy, SUIT" font-weight="800"><tspan x="0" y="0">EARN</tspan></text>
    <g id="사각형_195" data-name="사각형 195" transform="translate(360 2374)" fill="none" stroke="#fff" stroke-width="1">
      <rect width="680" height="340" rx="170" stroke="none"/>
      <rect x="0.5" y="0.5" width="679" height="339" rx="169.5" fill="none"/>
    </g>
    <g id="사각형_196" data-name="사각형 196" transform="translate(880 2374)" fill="none" stroke="#fff" stroke-width="1">
      <rect width="680" height="340" rx="170" stroke="none"/>
      <rect x="0.5" y="0.5" width="679" height="339" rx="169.5" fill="none"/>
    </g>
    <path id="교차_1" data-name="교차 1" d="M6246,9064a169.9,169.9,0,0,1,80-144.248,170.048,170.048,0,0,1,0,288.5A169.9,169.9,0,0,1,6246,9064Z" transform="translate(-5366 -6519.752)" fill="#fff" opacity="0.15"/>
    <text id="_" data-name="&amp;" transform="translate(960 2566)" fill="#fff" font-size="60" font-family="SUIT-Medium, SUIT" font-weight="500"><tspan x="-21.9" y="0">&amp;</tspan></text>
  </g>
</svg>
