<svg id="그룹_116" data-name="그룹 116" xmlns="http://www.w3.org/2000/svg" xmlns:xlink="http://www.w3.org/1999/xlink" width="178.909" height="31.903" viewBox="0 0 178.909 31.903">
  <defs>
    <clipPath id="clip-path">
      <rect id="사각형_142" data-name="사각형 142" width="178.909" height="31.903" fill="#fff"/>
    </clipPath>
  </defs>
  <g id="그룹_57" data-name="그룹 57" transform="translate(0 0)" clip-path="url(#clip-path)">
    <path id="패스_212" data-name="패스 212" d="M359.573,21.815l-2.835,2.632a9.607,9.607,0,0,0-4.186-.922c-3.878,0-7.021,2.521-7.021,5.63a5.2,5.2,0,0,0,2.328,4.179,5.942,5.942,0,0,0-1.986,3.687A3.943,3.943,0,0,0,346.6,39.2l0,0h0a5.034,5.034,0,0,0,.577.639,4.211,4.211,0,0,0-1.946,3.447c0,1.55,1.322,4.719,7.317,4.719s7.864-3.442,7.933-6.018a3.8,3.8,0,0,0-2.558-4.089c-1.721-.764-7.541-.835-7.541-.835-1.633-.62-.809-2.166-.467-2.693a8.515,8.515,0,0,0,2.632.413,8.626,8.626,0,0,0,5.129-1.391,5.294,5.294,0,0,0,1.892-4.24,5.262,5.262,0,0,0-1.076-3.322l2.877-.9Zm-9.669,18.6h3.97s2.622,0,2.622,1.778-1.434,2.576-3.635,2.576-3.933-.479-3.933-2.188c0-1.368.322-1.86.976-2.166m2.891-8.655a2.829,2.829,0,0,1-3.009-2.606,3.04,3.04,0,0,1,6.018,0,2.829,2.829,0,0,1-3.009,2.606" transform="translate(-259.658 -16.264)" fill="#fff"/>
    <path id="패스_213" data-name="패스 213" d="M350.753,92.111l0,0,0,0Z" transform="translate(-263.811 -69.176)" fill="#fff"/>
    <path id="패스_214" data-name="패스 214" d="M425.505,28.667a10.069,10.069,0,0,0-6.331,2.112l1.185,2.69s1.128-1.163,4.24-1.083,3.237.832,3.237,3.442v.057h-2.667c-1.482,0-6.93.046-6.93,5.152s3.9,5.471,5.083,5.471a14.105,14.105,0,0,0,5.1-1.888l.51,1.261h2.907V34.016c0-1.763-1.732-5.349-6.331-5.349m2.331,13.068a5.474,5.474,0,0,1-2.633,1.24c-.533,0-3.2.638-3.2-1.778a2.619,2.619,0,0,1,2.462-2.6h3.374Z" transform="translate(-314.608 -21.422)" fill="#fff"/>
    <path id="패스_215" data-name="패스 215" d="M510.3,28.667a7.153,7.153,0,0,0-5.691,2.409,4.346,4.346,0,0,0-4.065-2.409,7.224,7.224,0,0,0-5.564,2.262l-.758-1.836h-3.13V45.87H495.8V33.013a4.721,4.721,0,0,1,2.736-.653,2.241,2.241,0,0,1,2.4,2.249V45.87h4.346v-12.7a4.8,4.8,0,0,1,3.009-.813,2.241,2.241,0,0,1,2.4,2.249V45.87h4.346v-12.7s-.456-4.5-4.741-4.5" transform="translate(-369.444 -21.422)" fill="#fff"/>
    <path id="패스_216" data-name="패스 216" d="M610.737,28.667c-6.991,0-7.447,6.869-7.447,9.057a10.046,10.046,0,0,0,.79,4.681,7.563,7.563,0,0,0,7.1,4.164,10.6,10.6,0,0,0,6.094-1.671l-.912-2.887a11.348,11.348,0,0,1-4.437,1c-1.932-.044-4.164-.711-4.4-4.043h10.361V36.022s-.152-7.355-7.142-7.355m2.963,7.355h-6.109a4.856,4.856,0,0,1,.7-3.024,2.894,2.894,0,0,1,2.356-.973,2.849,2.849,0,0,1,2.006.547c1.195,1.151,1.049,3.45,1.049,3.45" transform="translate(-453.894 -21.422)" fill="#fff"/>
    <path id="패스_217" data-name="패스 217" d="M681.139,36.4c-2.348-1.163-3.978-1.151-3.962-2.761.03-3.02,6.5-.773,6.5-.773l1.3-2.735a16.716,16.716,0,0,0-6.083-1.474c-1.751.076-6.022,1.109-6.022,5.19,0,4.126,3.88,4.445,6.023,5.562s2.047,1.425,2.047,2.2c0,2.838-7.5.422-7.5.422l-.889,3.077c.912.616,3.852,1.345,7.021,1.3s5.494-1.847,5.653-5.015-1.744-3.83-4.092-4.992" transform="translate(-506.033 -21.41)" fill="#fff"/>
    <path id="패스_218" data-name="패스 218" d="M0,.6,2.9,0v24.54H0Z" transform="translate(0.201 0.156)" fill="#fff"/>
    <path id="패스_219" data-name="패스 219" d="M22.377,28.917l2.22,1.618-5.42,7,6.248,7.415L23.28,46.757l-7.452-9.221Z" transform="translate(-11.713 -21.609)" fill="#fff"/>
    <path id="패스_220" data-name="패스 220" d="M137.165.6l2.9-.6v24.54h-2.9Z" transform="translate(-103.044 0.156)" fill="#fff"/>
    <path id="패스_221" data-name="패스 221" d="M159.542,28.917l2.22,1.618-5.42,7,6.248,7.415-2.145,1.807-7.452-9.221Z" transform="translate(-114.958 -21.609)" fill="#fff"/>
    <path id="패스_222" data-name="패스 222" d="M76.433,31.428a5.1,5.1,0,0,0-4.234-1.75A12.481,12.481,0,0,0,66.083,31.2l.9,1.976s4.7-2.321,7.038-.339c.855.726,1.12,2,1.11,4.215H72.086a8.921,8.921,0,0,0-4.749.95,4.375,4.375,0,0,0-1.932,2.438c-1.186,3.914.974,6.069,3.021,6.657.624.18,2.856.84,6.843-1.968l.374,1.69h2.183V36.49a8.436,8.436,0,0,0-1.393-5.062m-8.74,10.948a2.85,2.85,0,0,1,1.565-2.814,8.35,8.35,0,0,1,3.853-.536h2.023v4a11.62,11.62,0,0,1-3.043,1.638c-.367.1-4.229,1.173-4.4-2.285" transform="translate(-48.776 -22.182)" fill="#fff"/>
    <path id="패스_223" data-name="패스 223" d="M213.408,31.428a5.1,5.1,0,0,0-4.234-1.75,12.481,12.481,0,0,0-6.116,1.524l.9,1.976s4.7-2.321,7.038-.339c.855.726,1.12,2,1.11,4.215h-3.048a8.921,8.921,0,0,0-4.749.95,4.375,4.375,0,0,0-1.932,2.438c-1.186,3.914.974,6.069,3.021,6.657.624.18,2.856.84,6.843-1.968l.374,1.69H214.8V36.49a8.436,8.436,0,0,0-1.393-5.062m-8.74,10.948a2.85,2.85,0,0,1,1.565-2.814,8.35,8.35,0,0,1,3.853-.536h2.023v4a11.619,11.619,0,0,1-3.043,1.638c-.367.1-4.229,1.173-4.4-2.285" transform="translate(-151.877 -22.182)" fill="#fff"/>
    <path id="패스_224" data-name="패스 224" d="M281.809,31.814a6.605,6.605,0,0,0-2.9-1.76,8.139,8.139,0,0,0-4.893,0,6.606,6.606,0,0,0-2.9,1.76c-1.251,1.317-2.192,3.175-2.192,6.666,0,5.465,2.508,7.517,4.622,8.308a8.748,8.748,0,0,0,5.829,0C281.494,46,284,43.945,284,38.48c0-3.491-.941-5.35-2.192-6.666m-3.532,12.81a4.635,4.635,0,0,1-3.626,0c-1.315-.585-2.875-2.1-2.875-6.138,0-2.579.586-3.952,1.364-4.925a4.046,4.046,0,0,1,1.8-1.3,4.3,4.3,0,0,1,3.043,0,4.048,4.048,0,0,1,1.8,1.3c.778.973,1.364,2.346,1.364,4.925,0,4.037-1.56,5.553-2.875,6.138" transform="translate(-202.222 -22.182)" fill="#fff"/>
  </g>
</svg>
