<svg id="그룹_60" data-name="그룹 60" xmlns="http://www.w3.org/2000/svg" xmlns:xlink="http://www.w3.org/1999/xlink" width="136.001" height="67.531" viewBox="0 0 136.001 67.531">
  <defs>
    <clipPath id="clip-path">
      <rect id="사각형_146" data-name="사각형 146" width="136.001" height="67.531" fill="none"/>
    </clipPath>
  </defs>
  <g id="그룹_59" data-name="그룹 59" clip-path="url(#clip-path)">
    <path id="패스_225" data-name="패스 225" d="M183.3,181.164h18.2a16.864,16.864,0,1,0,0,2.056H183.3Z" transform="translate(-133.534 -131.562)" fill="#00a9e0"/>
    <path id="패스_226" data-name="패스 226" d="M261.886,242.869h-18.2v2.056h18.2c.02-.34.034-.682.034-1.028s-.014-.687-.034-1.028" transform="translate(-193.919 -193.267)" fill="#fde515"/>
    <path id="패스_227" data-name="패스 227" d="M534.064,165.148H501.206a.447.447,0,0,0-.446.447V198.5a.447.447,0,0,0,.446.446h15.826a.447.447,0,0,0,.447-.446V183.133a.4.4,0,0,1,.686-.279l15.6,15.968a.423.423,0,0,0,.725-.306V165.581a.429.429,0,0,0-.424-.433" transform="translate(-398.488 -131.419)" fill="#00a9e0"/>
    <path id="패스_228" data-name="패스 228" d="M201.535,16.864A16.864,16.864,0,1,1,184.67,0a16.864,16.864,0,0,1,16.864,16.864" transform="translate(-133.534)" fill="#f7018a"/>
    <path id="패스_229" data-name="패스 229" d="M242.4,71.843a2.754,2.754,0,1,1-2.754-2.754,2.754,2.754,0,0,1,2.754,2.754" transform="translate(-188.512 -54.979)" fill="#fde515"/>
    <path id="패스_230" data-name="패스 230" d="M33.534.128,17.459,16.259a.456.456,0,0,1-.646,0L.738.128A.432.432,0,0,0,0,.433V33.3a.432.432,0,0,0,.432.432H16.108V26.913h2.055v6.816H33.84a.432.432,0,0,0,.432-.432V.433a.432.432,0,0,0-.738-.3" transform="translate(0 0)" fill="#f7018a"/>
    <rect id="사각형_144" data-name="사각형 144" width="2.056" height="6.816" transform="translate(16.108 26.913)" fill="#fde515"/>
    <path id="패스_231" data-name="패스 231" d="M534.488,16.864A16.864,16.864,0,1,1,517.623,0a16.865,16.865,0,0,1,16.864,16.864" transform="translate(-398.487)" fill="#f7018a"/>
    <path id="패스_232" data-name="패스 232" d="M575.356,71.843a2.754,2.754,0,1,1-2.754-2.754,2.754,2.754,0,0,1,2.754,2.754" transform="translate(-453.466 -54.979)" fill="#fde515"/>
    <path id="패스_233" data-name="패스 233" d="M368.012,182.191a16.864,16.864,0,1,1-16.864-16.864,16.864,16.864,0,0,1,16.864,16.864" transform="translate(-266.011 -131.562)" fill="#00a9e0"/>
    <path id="패스_234" data-name="패스 234" d="M408.879,237.17a2.754,2.754,0,1,1-2.754-2.754,2.754,2.754,0,0,1,2.754,2.754" transform="translate(-320.989 -186.54)" fill="#fde515"/>
    <path id="패스_235" data-name="패스 235" d="M242.4,237.17a2.754,2.754,0,1,1-2.754-2.754,2.754,2.754,0,0,1,2.754,2.754" transform="translate(-188.512 -186.54)" fill="#fde515"/>
    <path id="패스_236" data-name="패스 236" d="M366.488.128,350.413,16.259a.456.456,0,0,1-.646,0L333.692.128a.432.432,0,0,0-.738.3V33.3a.432.432,0,0,0,.432.432h15.676V26.913h2.055v6.816h15.676a.432.432,0,0,0,.432-.432V.433a.432.432,0,0,0-.738-.3" transform="translate(-264.954 0)" fill="#f7018a"/>
    <rect id="사각형_145" data-name="사각형 145" width="2.056" height="6.816" transform="translate(84.109 26.913)" fill="#fde515"/>
  </g>
</svg>
