<svg xmlns="http://www.w3.org/2000/svg" xmlns:xlink="http://www.w3.org/1999/xlink" width="70" height="78.578" viewBox="0 0 70 78.578">
  <defs>
    <clipPath id="clip-path">
      <rect id="사각형_12" data-name="사각형 12" width="70" height="78.578" fill="none"/>
    </clipPath>
    <clipPath id="clip-path-3">
      <path id="패스_85" data-name="패스 85" d="M11.11,1094.978v8.533l69.085.29v-8.533c-16.782-6.679-27.551-7.34-36.542-7.34s-25.2,3.277-32.542,7.051" transform="translate(-11.11 -1087.927)" fill="none"/>
    </clipPath>
  </defs>
  <g id="그룹_257" data-name="그룹 257" transform="translate(0 -0.004)">
    <g id="그룹_2" data-name="그룹 2" transform="translate(0 0.005)">
      <g id="그룹_1" data-name="그룹 1" transform="translate(0 0)" clip-path="url(#clip-path)">
        <path id="패스_1" data-name="패스 1" d="M1576.5,1197.464l-10.259,6.56s8.123-8.079,8.238-8.1a24.725,24.725,0,0,1,2.021,1.541" transform="translate(-1506.514 -1150.314)" fill="#001b2b"/>
        <path id="패스_2" data-name="패스 2" d="M1460.058,1197.682l-11.073,3.375-1.94-2.622,1.3-10.137,8.662,2.781Z" transform="translate(-1391.859 -1142.98)" fill="#001b2b"/>
        <path id="패스_3" data-name="패스 3" d="M51.6,1203.687l7.42,3.165,4.326-1.83-1.9-9.093Z" transform="translate(-49.634 -1150.32)" fill="#001b2b"/>
        <path id="패스_4" data-name="패스 4" d="M269.726,437.806a48.275,48.275,0,0,1,17.341,4.044l.066.031.033.065a10.96,10.96,0,0,0,6.473,5.431l1.314.433.182,1.373a63.021,63.021,0,0,1-.055,17.833,45.189,45.189,0,0,1-5.578,16.12,38.666,38.666,0,0,1-18.94,16.2l-.846.351-.846-.351a38.667,38.667,0,0,1-18.94-16.2,45.191,45.191,0,0,1-5.577-16.12,63.021,63.021,0,0,1-.055-17.833l.182-1.373,1.312-.432a10.963,10.963,0,0,0,6.475-5.431l.033-.065.067-.031a48.274,48.274,0,0,1,17.341-4.044h.018Z" transform="translate(-234.398 -421.109)" fill="#001b2b" fill-rule="evenodd"/>
        <path id="패스_5" data-name="패스 5" d="M305.659,534.106c-3.88-8.548-4.819-18.673-3.462-28.908.026-.008,5.314-1.756,7.436-5.915a51.055,51.055,0,0,1,15.794-3.543,51.055,51.055,0,0,1,15.794,3.543c2.123,4.158,7.411,5.906,7.436,5.915,1.357,10.235.418,20.359-3.462,28.908Z" transform="translate(-290.108 -476.834)" fill="#0081c4" fill-rule="evenodd"/>
        <path id="패스_6" data-name="패스 6" d="M405.317,567.365a16.4,16.4,0,0,0,6.435,5.406l.325.157.037.359a59.235,59.235,0,0,1,.094,11.726H370.289a59.228,59.228,0,0,1,.094-11.726l.037-.359.325-.157a16.4,16.4,0,0,0,6.435-5.406l.111-.168.187-.075a39.668,39.668,0,0,1,6.447-1.867,46.117,46.117,0,0,1,7.293-1.029h.06a46.115,46.115,0,0,1,7.293,1.029,39.668,39.668,0,0,1,6.447,1.867l.187.075Z" transform="translate(-355.929 -542.706)" fill="#003454" fill-rule="evenodd"/>
        <path id="패스_7" data-name="패스 7" d="M431.273,593.415a17.183,17.183,0,0,1-6.653-5.61,38.533,38.533,0,0,0-6.275-1.81,43.681,43.681,0,0,0-7.159-1.012A43.677,43.677,0,0,0,404.028,586a38.534,38.534,0,0,0-6.275,1.81,17.183,17.183,0,0,1-6.653,5.61,58.787,58.787,0,0,0-.149,10.773h40.472a58.789,58.789,0,0,0-.149-10.773" transform="translate(-375.867 -562.674)" fill="#004570" fill-rule="evenodd"/>
        <path id="패스_8" data-name="패스 8" d="M334.554,1264.083a43.82,43.82,0,0,1-2.579-8.157h45.316a43.834,43.834,0,0,1-2.579,8.157Z" transform="translate(-319.314 -1208.029)" fill="#0081c4" fill-rule="evenodd"/>
        <path id="패스_9" data-name="패스 9" d="M461.4,1385.2l.518,5.713q-.353.71-.735,1.4V1385.2Zm-4.045,0v12.759a35.313,35.313,0,0,1-2.777,2.988V1385.2Zm-6.606,0v18.932q-1.327.958-2.777,1.821V1385.2Zm-26.425,7.116q-.381-.693-.734-1.4l.518-5.713h.216Zm6.606,8.631a35.253,35.253,0,0,1-2.777-2.988V1385.2h2.777Zm6.606,5.007q-1.451-.863-2.777-1.821V1385.2h2.777Zm5.217,2.607q-.706-.293-1.389-.605V1385.2h2.777v22.755q-.683.312-1.389.605" transform="translate(-407.434 -1332.375)" fill="#fff" fill-rule="evenodd"/>
        <path id="패스_10" data-name="패스 10" d="M479.707,1385.2v7.116a36.337,36.337,0,0,1-3.829,5.643V1385.2Zm-6.606,0v15.746a35.878,35.878,0,0,1-3.829,3.186V1385.2Zm-6.606,0v20.753a40.235,40.235,0,0,1-3.829,2V1385.2Zm-19.818,12.759a36.307,36.307,0,0,1-3.829-5.643V1385.2h3.829Zm6.606,6.173a35.857,35.857,0,0,1-3.829-3.186V1385.2h3.829Zm6.606,3.823a40.2,40.2,0,0,1-3.829-2V1385.2h3.829Z" transform="translate(-425.959 -1332.375)" fill="#61a81d" fill-rule="evenodd"/>
        <path id="패스_11" data-name="패스 11" d="M461.4,1385.2l.518,5.713q-.353.71-.735,1.4V1385.2Zm-37.076,7.116q-.381-.693-.734-1.4l.518-5.713h.216Zm6.606,1.726-.258.072c-.86.243-1.7.526-2.52.843V1385.2h2.777Zm6.606-1.407c-.912.127-1.835.286-2.777.478V1385.2h2.777Zm13.212.478c-.942-.192-1.866-.351-2.777-.478V1385.2h2.777Zm6.606,1.843c-.822-.317-1.66-.6-2.52-.843l-.257-.072V1385.2h2.777Zm-15.99-2.665V1385.2h2.777v7.092c-.927-.035-1.85-.035-2.777,0" transform="translate(-407.434 -1332.375)" fill="#c1c1c1" fill-rule="evenodd"/>
        <path id="패스_12" data-name="패스 12" d="M446.676,1394.959q-.878.339-1.732.728a36.871,36.871,0,0,1-2.1-3.368V1385.2h3.829Zm6.606-1.843c-1.24.253-2.511.563-3.829.929V1385.2h3.829Zm13.212-.478a38.378,38.378,0,0,0-3.829-.343V1385.2h3.829Zm6.606,1.407c-1.318-.366-2.589-.676-3.829-.929V1385.2H473.1Zm4.51,1.642q-.856-.388-1.732-.728V1385.2h3.829v7.116a36.819,36.819,0,0,1-2.1,3.368m-21.551-3.049V1385.2h3.829v7.092a38.345,38.345,0,0,0-3.829.343" transform="translate(-425.958 -1332.375)" fill="#526223" fill-rule="evenodd"/>
        <path id="패스_13" data-name="패스 13" d="M291.976,1247.755a33.024,33.024,0,0,1,3.768,2.148l2.28,1.491-4.711,1.742,2.131,6.718-3.03-1.7a35.759,35.759,0,0,0-7.867-3.384,41.585,41.585,0,0,0-24.908,0,35.761,35.761,0,0,0-7.867,3.384l-3.03,1.7,2.131-6.718-4.711-1.742,2.28-1.491a33.013,33.013,0,0,1,3.768-2.148l-.754-1.795,1.347-.5a59.285,59.285,0,0,1,38.582,0l1.347.5Z" transform="translate(-236.774 -1194.863)" fill="#001b2b" fill-rule="evenodd"/>
        <path id="패스_14" data-name="패스 14" d="M371.44,1285.674a29.952,29.952,0,0,0-4-2.244l-2.223,3.03,2.138-5.087a57.919,57.919,0,0,0-37.632,0l2.138,5.087-2.223-3.03a29.978,29.978,0,0,0-4,2.244l3.385,1.252-1.477,4.654a37.458,37.458,0,0,1,14.181-4.778,30.913,30.913,0,0,0-9.2.661,51.37,51.37,0,0,1,32.031,0,30.9,30.9,0,0,0-9.205-.661,37.457,37.457,0,0,1,14.181,4.778l-1.476-4.654Z" transform="translate(-313.222 -1229.484)" fill="#fff" fill-rule="evenodd"/>
        <path id="패스_15" data-name="패스 15" d="M329.7,1474.144l-4.062-.789,3.385,1.252-1.477,4.654a37.467,37.467,0,0,1,14.181-4.778,30.979,30.979,0,0,0-13.215,3.529Z" transform="translate(-313.222 -1417.166)" fill="#cccccf"/>
        <path id="패스_16" data-name="패스 16" d="M1120.769,1473.355l-4.062.789,1.189,3.867a30.978,30.978,0,0,0-13.215-3.529,37.467,37.467,0,0,1,14.181,4.778l-1.477-4.654Z" transform="translate(-1062.551 -1417.166)" fill="#cccccf"/>
        <path id="패스_17" data-name="패스 17" d="M527.47,22.105a.459.459,0,0,1-.271-.088l-1.386-1.011-1.386,1.011a.46.46,0,0,1-.708-.515l.533-1.631-1.39-1.006a.46.46,0,0,1,.27-.833l1.717,0,.527-1.633a.46.46,0,0,1,.876,0l.527,1.633,1.717,0a.46.46,0,0,1,.27.833l-1.39,1.006.533,1.631a.46.46,0,0,1-.437.6m-29.824,0a.46.46,0,0,1-.437-.6l.533-1.631-1.39-1.006a.46.46,0,0,1,.27-.833l1.717,0,.527-1.633a.46.46,0,0,1,.876,0l.527,1.633,1.717,0a.46.46,0,0,1,.27.833l-1.39,1.006L501.4,21.5a.46.46,0,0,1-.708.515L499.3,21.005l-1.386,1.011a.46.46,0,0,1-.271.088m6.06-2.156a.46.46,0,0,1-.437-.6l.575-1.757-1.5-1.083a.46.46,0,0,1,.27-.833l1.849,0,.568-1.759a.46.46,0,0,1,.875,0l.568,1.759,1.849,0a.46.46,0,0,1,.27.833l-1.5,1.084.574,1.757a.46.46,0,0,1-.708.515l-1.493-1.089-1.493,1.089a.459.459,0,0,1-.271.088m17.7,0a.46.46,0,0,1-.271-.088l-1.493-1.089-1.493,1.089a.46.46,0,0,1-.708-.515l.575-1.757-1.5-1.083a.46.46,0,0,1,.27-.833l1.849,0,.568-1.759a.46.46,0,0,1,.876,0l.568,1.759,1.849,0a.46.46,0,0,1,.27.833l-1.5,1.083.575,1.757a.46.46,0,0,1-.437.6m-6.771-.578a.459.459,0,0,1-.271-.088l-1.8-1.316-1.8,1.316a.46.46,0,0,1-.708-.515l.694-2.122-1.809-1.309a.46.46,0,0,1,.27-.833l2.233,0,.686-2.124a.46.46,0,0,1,.876,0l.686,2.124,2.233,0a.46.46,0,0,1,.27.833l-1.808,1.309.694,2.122a.46.46,0,0,1-.437.6" transform="translate(-477.239 -11.606)" fill="#f4e652" fill-rule="evenodd"/>
        <path id="패스_18" data-name="패스 18" d="M500.962.925l.789,2.444,2.568,0-2.08,1.505.8,2.441L500.962,5.8,498.887,7.31l.8-2.441L497.6,3.364l2.568,0Zm7.081,1.533.671,2.078,2.184,0-1.769,1.28.679,2.076L508.043,6.6l-1.764,1.287.679-2.076-1.769-1.28,2.184,0,.671-2.078m-14.176,0,.671,2.078,2.184,0-1.769,1.28.679,2.076L493.867,6.6,492.1,7.888l.679-2.076-1.769-1.28,2.184,0,.671-2.078m10.451.906h0m-7.6,1.168h0m17.488.411.63,1.952,2.052,0-1.662,1.2.638,1.95L514.21,8.835l-1.657,1.209.638-1.95-1.662-1.2,2.052,0,.63-1.952m-26.51,0,.63,1.952,2.052,0-1.662,1.2.638,1.95L487.7,8.835l-1.657,1.209.638-1.95-1.662-1.2,2.051,0,.63-1.952m2.682,1.948h0M500.962,0a.92.92,0,0,0-.876.637l-.583,1.8-1.9,0h0a.92.92,0,0,0-.886,1.168l-1.512,0-.465-1.44a.92.92,0,0,0-.875-.637h0a.92.92,0,0,0-.875.637l-.465,1.44-1.513,0h0a.92.92,0,0,0-.539,1.665l1.225.887-.47,1.438a.92.92,0,0,0,1.417,1.029l1.222-.892,1.222.892A.92.92,0,0,0,496.506,7.6l-.47-1.438,1.215-.879a.921.921,0,0,0,.392-.753V4.526l.96.695-.59,1.8a.92.92,0,0,0,1.417,1.029l1.532-1.118,1.532,1.118a.92.92,0,0,0,1.417-1.029l-.59-1.8.947-.686a.92.92,0,0,0,.381.742l1.225.887L505.4,7.6a.92.92,0,0,0,1.417,1.029l1.222-.892,1.222.892A.92.92,0,0,0,510.682,7.6l-.47-1.438,1.226-.887a.92.92,0,0,0-.539-1.665h0l-1.513,0-.465-1.44a.92.92,0,0,0-1.751,0l-.465,1.44-1.5,0a.921.921,0,0,0-.879-1.168h-.009l-1.9,0-.583-1.8A.92.92,0,0,0,500.962,0M514.21,4.023h0a.92.92,0,0,0-.875.637l-.424,1.313-1.38,0h0a.92.92,0,0,0-.539,1.665l1.118.809-.429,1.312a.92.92,0,0,0,1.417,1.029l1.115-.814,1.115.814a.92.92,0,0,0,1.417-1.029l-.429-1.312,1.118-.809a.92.92,0,0,0-.539-1.665h0l-1.38,0-.424-1.314a.92.92,0,0,0-.875-.637m-26.51,0h0a.92.92,0,0,0-.875.637L486.4,5.974l-1.38,0h0a.92.92,0,0,0-.539,1.665l1.118.809-.429,1.312a.92.92,0,0,0,1.417,1.029l1.115-.814,1.115.814a.92.92,0,0,0,1.417-1.029L489.8,8.446l1.108-.8a.928.928,0,0,0,.182-.168h0a.92.92,0,0,0-.7-1.5h-.009l-1.381,0-.424-1.314a.92.92,0,0,0-.875-.637" transform="translate(-465.636 -0.005)" fill="#001b2b"/>
        <path id="패스_19" data-name="패스 19" d="M442.384,838.72a78.178,78.178,0,0,0-35.537,0l-1.736,5.345q1.474-.334,2.955-.626a78.409,78.409,0,0,1,9.23-1.244c2.444-.187,4.877-.268,7.319-.272s4.875.085,7.319.272a78.414,78.414,0,0,1,9.23,1.244q1.481.291,2.955.626Z" transform="translate(-389.661 -804.766)" fill="#001b2b" fill-rule="evenodd"/>
      </g>
    </g>
    <text id="N" transform="translate(25.577 34.281) rotate(-5.216)" fill="#fff" font-size="1" font-family="SegoeUI, Segoe UI"><tspan x="0" y="0">N</tspan></text>
    <text id="O" transform="translate(26.919 34.157) rotate(-4.291)" fill="#fff" font-size="1" font-family="SegoeUI, Segoe UI"><tspan x="0" y="0">O</tspan></text>
    <text id="N-2" data-name="N" transform="translate(28.331 34.05) rotate(-3.402)" fill="#fff" font-size="1" font-family="SegoeUI, Segoe UI"><tspan x="0" y="0">N</tspan></text>
    <text id="_-" data-name="-" transform="translate(29.692 33.97) rotate(-2.808)" fill="#fff" font-size="1" font-family="SegoeUI, Segoe UI"><tspan x="0" y="0">-</tspan></text>
    <text id="F" transform="translate(30.243 33.942) rotate(-2.347)" fill="#fff" font-size="1" font-family="SegoeUI, Segoe UI"><tspan x="0" y="0">F</tspan></text>
    <text id="U" transform="matrix(1, -0.029, 0.029, 1, 31.212, 33.9)" fill="#fff" font-size="1" font-family="SegoeUI, Segoe UI"><tspan x="0" y="0">U</tspan></text>
    <text id="N-3" data-name="N" transform="translate(32.534 33.861) rotate(-0.949)" fill="#fff" font-size="1" font-family="SegoeUI, Segoe UI"><tspan x="0" y="0">N</tspan></text>
    <text id="G" transform="translate(33.879 33.838) rotate(-0.26)" fill="#fff" font-size="1" font-family="SegoeUI, Segoe UI"><tspan x="0" y="0">G</tspan></text>
    <text id="I" transform="translate(35.22 33.834) rotate(0.354)" fill="#fff" font-size="1" font-family="SegoeUI, Segoe UI"><tspan x="0" y="0">I</tspan></text>
    <text id="B" transform="translate(35.619 33.834) rotate(0.742)" fill="#fff" font-size="1" font-family="SegoeUI, Segoe UI"><tspan x="0" y="0">B</tspan></text>
    <text id="L" transform="translate(36.708 33.848) rotate(1.285)" fill="#fff" font-size="1" font-family="SegoeUI, Segoe UI"><tspan x="0" y="0">L</tspan></text>
    <text id="E" transform="translate(37.642 33.868) rotate(1.821)" fill="#fff" font-size="1" font-family="SegoeUI, Segoe UI"><tspan x="0" y="0">E</tspan></text>
    <text id="_" data-name=" " transform="translate(38.643 33.901) rotate(2.209)" fill="#fff" font-size="1" font-family="SegoeUI, Segoe UI"><tspan x="0" y="0"> </tspan></text>
    <text id="T" transform="translate(38.889 33.909) rotate(2.556)" fill="#fff" font-size="1" font-family="SegoeUI, Segoe UI"><tspan x="0" y="0">T</tspan></text>
    <text id="O-2" data-name="O" transform="translate(39.819 33.948) rotate(3.256)" fill="#fff" font-size="1" font-family="SegoeUI, Segoe UI"><tspan x="0" y="0">O</tspan></text>
    <text id="K" transform="translate(41.232 34.028) rotate(4.055)" fill="#fff" font-size="1" font-family="SegoeUI, Segoe UI"><tspan x="0" y="0">K</tspan></text>
    <text id="E-2" data-name="E" transform="translate(42.32 34.105) rotate(4.741)" fill="#fff" font-size="1" font-family="SegoeUI, Segoe UI"><tspan x="0" y="0">E</tspan></text>
    <text id="N-4" data-name="N" transform="translate(43.297 34.183) rotate(5.526)" fill="#fff" font-size="1" font-family="SegoeUI, Segoe UI"><tspan x="0" y="0">N</tspan></text>
    <g id="그룹_4" data-name="그룹 4" transform="translate(0 0.005)">
      <g id="그룹_3" data-name="그룹 3" transform="translate(0 0)" clip-path="url(#clip-path)">
        <path id="패스_20" data-name="패스 20" d="M778.112,729.782c.153,0,.3,0,.457,0a5.411,5.411,0,0,0-4.95-4.241l-1,.531a9.863,9.863,0,0,1,.833,3.839q2.286-.129,4.655-.131" transform="translate(-743.158 -697.874)" fill="#fff"/>
        <path id="패스_21" data-name="패스 21" d="M903.852,564.417a9.727,9.727,0,0,1-.957,2.8,2.106,2.106,0,0,0,.957-2.8" transform="translate(-868.461 -542.892)" fill="#fff"/>
        <path id="패스_22" data-name="패스 22" d="M413.357,834.941c-.592.367-.017,1.323-.017,1.323a1.938,1.938,0,0,1,.07-.712c.052.61,1.253.869,1.531.573s0-.453,0-.453a1.8,1.8,0,0,1,.626.592,1.784,1.784,0,0,0-2.21-1.323" transform="translate(-397.335 -803.009)" fill="#001727"/>
        <path id="패스_23" data-name="패스 23" d="M421.543,78.891s-1.671,1.723-5.064.992A4.456,4.456,0,0,0,420,76.307a2.923,2.923,0,0,0-.722-2.872,4.4,4.4,0,0,1-1.2,2.61c-1.191,1.054-3.568.539-5.256-.714-1.647-1.222-3.446-3.585-6.6-4.768,0,0,4.82.261,6.8-.7a19.393,19.393,0,0,0-8.484-2.61s1.488-.992,1.1-5.116a5.88,5.88,0,0,1-3.837,2.376c-2.567.579-3.863-.644-6.561-.287,0,0,1.357-3.315-.922-5.639a3.063,3.063,0,0,1-.609,3.42c-1.049,1.3-3.972,2.15-4.751,4.518a20.564,20.564,0,0,0-8.823-1.438l5.653,5.207-5.34-1.239,3.716,3.748c-.8.566-1.635,1.175-1.889,1.4a24.5,24.5,0,0,0,.035,2.837,3.623,3.623,0,0,0-1.41,1.827c-.4,1.218-1.584,2.558-2.053,3.689a10.313,10.313,0,0,0-.209,3.62,1.249,1.249,0,0,0-.2.251,11.8,11.8,0,0,0-1.519,2.377,4.913,4.913,0,0,0,.3,2.349,7.949,7.949,0,0,0,2.4-.3,7.68,7.68,0,0,0,1.762,1.676,8.471,8.471,0,0,0,1.793.139s.1-.494.3-1.232a9.189,9.189,0,0,0,3.664-.369,2.271,2.271,0,0,1,.244-1.166c.278-.365,2.506-2.941,2.576-3.237a5.078,5.078,0,0,0-.081-1.007l.765-.4a7.35,7.35,0,0,1,.492,3.248q.828-.064,1.667-.112a9.863,9.863,0,0,0-.833-3.839l1-.531a5.411,5.411,0,0,1,4.95,4.241q1.814.01,3.581.1a33.586,33.586,0,0,0-.26-5.628s-.47,2.454-.835,3.655a40.768,40.768,0,0,0-1.65-10.626,12.223,12.223,0,0,0-1.43-3.383,23.331,23.331,0,0,0-4.229-1.81,11.971,11.971,0,0,1,3.237,3.341,13.323,13.323,0,0,1,.7,2.68,11.609,11.609,0,0,1-2.541,5.447s-3.264,1.529-4.855,2.12a4.338,4.338,0,0,0-.174-.693,8.816,8.816,0,0,0-3.985.574,10.05,10.05,0,0,1,2.489-.127A5.827,5.827,0,0,1,388.6,84a18.5,18.5,0,0,1,.122,2.384c-.087.3-2.75,3.22-2.993,3.481-.209.365-.1.383-.1.383s-1.206.069-1.808.076c.564-1.665,1.517-3.779,2.939-4.792,0,0-2.785-.209-3.924,1.34a2.732,2.732,0,0,1,1.819-.487,11.581,11.581,0,0,0-2.158,5.552.841.841,0,0,1-.7-.191,16.977,16.977,0,0,1-1.144-1.357h0a2.885,2.885,0,0,0,.329-.244s-1.862.1-2.4.052a2.861,2.861,0,0,1-.731-.644,1.369,1.369,0,0,1,.035-1.218c.226-.4,1.236-.731,1.236-.731a2.354,2.354,0,0,1,.278-1.062,11.142,11.142,0,0,1,.383-3.742,28.4,28.4,0,0,1,1.944-3.4c.318-.5.545-.843.545-.843s.627-.47.7-.487.731.017.731.017c-.162.261-.331.574-.491.89-.4.8-.745,1.616-.745,1.616a18.831,18.831,0,0,1,2.262-3.045c.209.139.748-.017,1.34-.557a2.36,2.36,0,0,0,.644-1.444,2.489,2.489,0,0,1-1.236,1.375,7.324,7.324,0,0,0,.435-.661,3.573,3.573,0,0,0,.087-.957.922.922,0,0,0-.365-.574,2.805,2.805,0,0,1,.777-1.142,4.754,4.754,0,0,1,.581-.476,7.185,7.185,0,0,0-1.427.47,7.684,7.684,0,0,0-1.584,1.6,5.155,5.155,0,0,0,0,1.74,4.281,4.281,0,0,1-1.062.278,3.765,3.765,0,0,1,.226-1.549,6.449,6.449,0,0,0,.035-.94s2.993-2.489,3.272-2.767a18.722,18.722,0,0,0,1.149-1.671l-.572-.54-3.535-3.341a25.731,25.731,0,0,1,7.206,2.318c.41.211.626.344.626.344s5.8-1.958,9.633,2.845,4.072,5.717,3.733,8.092a15.449,15.449,0,0,1,.984,8.68c.193.02.385.042.577.063a8.924,8.924,0,0,0,.554-2.086s.157.931.31,2.185c2,.242,3.923.558,5.764.939.434-.517.839-1.044,1.209-1.582,0,0,.392-.524.5-3.291a10.09,10.09,0,0,1,5.012.653,7.616,7.616,0,0,0-3.6-2.9s4.49-.809,5.56-3.759m-24.608,1.784a9.727,9.727,0,0,0,.957-2.8,2.106,2.106,0,0,1-.957,2.8m.4-4.159c.974,3.063-2.088,5.308-2.088,5.308a14.243,14.243,0,0,0,2.088-5.308m-7.064-9.449c-.016-1.6,1.274-2.656,2.609-3.533a4.91,4.91,0,0,0,2.158-3.08c.035,1.775-1.166,3.133-2.784,4.159a4.565,4.565,0,0,0-1.983,2.454m1.043.382s1.149-2.8,5.29-2.3,6.648.47,8.353-1.288a5.343,5.343,0,0,1-5.1,2.576c-3.742-.157-6.2-1.305-8.545,1.009m13.035-2.228c-.94,2.993-5.621,1.479-5.621,1.479,4.125.5,5.621-1.479,5.621-1.479M398.9,69.45a5.029,5.029,0,0,1,3.359-1.218c2.315-.1,7.118,1.218,7.118,1.218-3.15.3-10.477,0-10.477,0m8.545,7.118c.626.435,4.385,2.941,7.779,2.315.11-.02.217-.043.322-.069a8.278,8.278,0,0,1-2.793-.8,7.624,7.624,0,0,0,5.025-.343,4.957,4.957,0,0,0,.517-.534c-2.5,1.706-5.792-.116-8.988-2.916a19.893,19.893,0,0,0-8.91-4c4.8.209,6.578,1.306,9.441,3.778,3.141,2.713,5.195,3.374,6.97,3.3a3.078,3.078,0,0,0,2.471-2.036c.022,1.218-.5,3.811-4.438,4.316s-7.4-3.011-7.4-3.011m9.867,7.622a8.266,8.266,0,0,0-3.812-1.07,2.069,2.069,0,0,0,.706.522,9.024,9.024,0,0,1-3.785-.522,9.544,9.544,0,0,0,2.141-.078,3.984,3.984,0,0,1-.992-.992,12.839,12.839,0,0,1,5.743,2.141m-7.1-4.1s5.769,1.819,8.928.583c0,0-4.673,2.576-8.928-.583" transform="translate(-362.501 -56.348)" fill="#001727"/>
        <path id="패스_24" data-name="패스 24" d="M1251.07,622.6c4.255,3.159,8.928.583,8.928.583-3.158,1.236-8.928-.583-8.928-.583" transform="translate(-1203.358 -598.854)" fill="#fff"/>
        <path id="패스_25" data-name="패스 25" d="M730.136,111.8c1.618-1.027,2.819-2.384,2.784-4.159a4.91,4.91,0,0,1-2.158,3.08c-1.335.878-2.625,1.933-2.609,3.533a4.566,4.566,0,0,1,1.983-2.454" transform="translate(-700.383 -103.532)" fill="#fff"/>
        <path id="패스_26" data-name="패스 26" d="M858.632,534.131s3.063-2.245,2.088-5.308a14.244,14.244,0,0,1-2.088,5.308" transform="translate(-825.886 -508.655)" fill="#fff"/>
        <path id="패스_27" data-name="패스 27" d="M755.5,200.661c2.349-2.315,4.8-1.166,8.545-1.009a5.343,5.343,0,0,0,5.1-2.576c-1.705,1.758-4.212,1.793-8.353,1.288s-5.291,2.3-5.291,2.3" transform="translate(-726.69 -189.56)" fill="#fff"/>
        <path id="패스_28" data-name="패스 28" d="M955.518,232.669s-1.5,1.984-5.621,1.479c0,0,4.681,1.514,5.621-1.479" transform="translate(-913.671 -223.796)" fill="#fff"/>
        <path id="패스_29" data-name="패스 29" d="M1008.148,373c3.933-.5,4.46-3.1,4.438-4.316a3.078,3.078,0,0,1-2.471,2.036c-1.775.07-3.829-.592-6.97-3.3-2.863-2.473-4.638-3.57-9.441-3.778a19.893,19.893,0,0,1,8.91,4c3.2,2.8,6.493,4.622,8.988,2.916a4.964,4.964,0,0,1-.517.534,7.624,7.624,0,0,1-5.025.343,8.28,8.28,0,0,0,2.794.8c-.1.025-.212.048-.322.069-3.393.626-7.153-1.88-7.779-2.315,0,0,3.463,3.515,7.4,3.011" transform="translate(-955.807 -349.766)" fill="#fff"/>
        <path id="패스_30" data-name="패스 30" d="M1257.7,673.934a3.978,3.978,0,0,0,.992.992,9.546,9.546,0,0,1-2.141.078,9.025,9.025,0,0,0,3.785.522,2.067,2.067,0,0,1-.706-.522,8.266,8.266,0,0,1,3.812,1.07,12.839,12.839,0,0,0-5.743-2.141" transform="translate(-1208.626 -648.232)" fill="#fff"/>
        <path id="패스_31" data-name="패스 31" d="M964.937,312.683s-4.8-1.323-7.118-1.218a5.029,5.029,0,0,0-3.359,1.218s7.327.3,10.477,0" transform="translate(-918.06 -299.581)" fill="#fff"/>
        <path id="패스_32" data-name="패스 32" d="M1147.746,796.589c-.154-1.255-.31-2.185-.31-2.185a8.921,8.921,0,0,1-.554,2.086q.434.048.864.1" transform="translate(-1103.143 -764.108)" fill="#fff"/>
        <path id="패스_33" data-name="패스 33" d="M403.077,288.6a.841.841,0,0,0,.7.191,11.582,11.582,0,0,1,2.158-5.552,2.732,2.732,0,0,0-1.819.487c1.14-1.549,3.924-1.34,3.924-1.34-1.422,1.013-2.375,3.127-2.939,4.792.6-.007,1.808-.076,1.808-.076s-.1-.017.1-.383c.244-.261,2.906-3.185,2.993-3.481a18.5,18.5,0,0,0-.122-2.384,5.807,5.807,0,0,0-.644-.092,10.047,10.047,0,0,0-2.489.127,8.815,8.815,0,0,1,3.985-.574,4.317,4.317,0,0,1,.174.693c1.592-.591,4.856-2.12,4.856-2.12a11.608,11.608,0,0,0,2.541-5.447,13.32,13.32,0,0,0-.7-2.68,11.971,11.971,0,0,0-3.237-3.341,23.331,23.331,0,0,1,4.229,1.81,12.224,12.224,0,0,1,1.43,3.383,40.764,40.764,0,0,1,1.65,10.626c.365-1.2.835-3.655.835-3.655a33.579,33.579,0,0,1,.26,5.628q2.124.1,4.17.311a15.45,15.45,0,0,0-.984-8.68c.339-2.375.1-3.289-3.733-8.092s-9.633-2.845-9.633-2.845-.215-.134-.626-.344a25.729,25.729,0,0,0-7.206-2.318l3.535,3.341.572.54a18.711,18.711,0,0,1-1.149,1.671c-.278.278-3.272,2.767-3.272,2.767a6.459,6.459,0,0,1-.035.94,3.763,3.763,0,0,0-.226,1.549,4.283,4.283,0,0,0,1.062-.278,5.157,5.157,0,0,1,0-1.74,7.682,7.682,0,0,1,1.584-1.6,7.193,7.193,0,0,1,1.427-.47,4.756,4.756,0,0,0-.581.476,2.806,2.806,0,0,0-.777,1.142.922.922,0,0,1,.365.574,3.573,3.573,0,0,1-.087.957,7.312,7.312,0,0,1-.435.661,2.489,2.489,0,0,0,1.236-1.375,2.36,2.36,0,0,1-.644,1.444c-.592.54-1.131.7-1.34.557a18.832,18.832,0,0,0-2.262,3.046s.34-.815.745-1.616c.159-.316.328-.629.491-.89,0,0-.661-.035-.731-.017s-.7.487-.7.487-.227.344-.545.843a28.388,28.388,0,0,0-1.944,3.4,11.143,11.143,0,0,0-.383,3.742,2.355,2.355,0,0,0-.279,1.062s-1.009.331-1.236.731a1.369,1.369,0,0,0-.035,1.218,2.862,2.862,0,0,0,.731.644c.539.052,2.4-.052,2.4-.052a2.888,2.888,0,0,1-.329.244h0a16.98,16.98,0,0,0,1.144,1.357m-1.688-2.732s.278.157,0,.452-1.479.038-1.531-.573a1.937,1.937,0,0,0-.07.712s-.574-.955.017-1.323a1.784,1.784,0,0,1,2.21,1.323,1.8,1.8,0,0,0-.627-.592" transform="translate(-383.784 -253.205)" fill="#fff"/>
        <path id="패스_34" data-name="패스 34" d="M603.062,1327.313c.63-.14,1.263-.272,1.9-.39a2.678,2.678,0,0,1,.844-.048,1.2,1.2,0,0,1,.541.2.89.89,0,0,1,.305.377,2.067,2.067,0,0,1,.141.5.933.933,0,0,1-.009.352.871.871,0,0,1-.129.3,1.027,1.027,0,0,1-.534.4.811.811,0,0,1,.3.057.922.922,0,0,1,.266.161,1.012,1.012,0,0,1,.206.246.862.862,0,0,1,.113.314,1.438,1.438,0,0,0,.078.313q.046.109.123.1.126-.02.1-.223l-.032-.209.372-.056.051.349a1.883,1.883,0,0,1,.018.386.935.935,0,0,1-.083.343.717.717,0,0,1-.21.262.78.78,0,0,1-.365.146,1,1,0,0,1-.845-.175,1.346,1.346,0,0,1-.416-.818,3.089,3.089,0,0,0-.081-.35.459.459,0,0,0-.115-.2.313.313,0,0,0-.191-.079,1.131,1.131,0,0,0-.3.025l.19.976.334-.064.156.832q-.871.168-1.736.357l-.185-.827.305-.067-.594-2.733-.321.071-.183-.82m1.688.5.208,1.071.254-.049a.594.594,0,0,0,.372-.2.491.491,0,0,0,.079-.409.593.593,0,0,0-.211-.4.523.523,0,0,0-.415-.066l-.288.055" transform="translate(-580.063 -1276.257)" fill="#001b2b"/>
        <path id="패스_35" data-name="패스 35" d="M732.764,1312.9q-1.094.071-2.184.177l-.086-.836c.21-.021.315-.032.525-.051-.062-.169-.094-.254-.157-.423q-.571.053-1.142.12c-.027.179-.04.268-.065.447l.431-.049.092.836q-.865.1-1.726.219l-.12-.832.375-.052q.184-1.449.4-2.892l-.238.03-.1-.821q1.131-.145,2.268-.241.674,1.768,1.292,3.556l.388-.025.05.839m-2.923-1.8c.3-.033.444-.049.74-.078q-.255-.672-.518-1.34-.116.708-.222,1.418" transform="translate(-700.555 -1258.63)" fill="#001b2b"/>
        <path id="패스_36" data-name="패스 36" d="M849.125,1305.255a3.343,3.343,0,0,1-.324.34,2.433,2.433,0,0,1-.385.288,2.086,2.086,0,0,1-.447.2,1.784,1.784,0,0,1-.506.081,2.008,2.008,0,0,1-.8-.136,1.729,1.729,0,0,1-.628-.43,2.21,2.21,0,0,1-.433-.7,3.067,3.067,0,0,1-.2-.956,2.734,2.734,0,0,1,.112-1,2.424,2.424,0,0,1,.394-.765,1.877,1.877,0,0,1,.562-.488,1.315,1.315,0,0,1,.6-.179,1.123,1.123,0,0,1,.384.05,1.255,1.255,0,0,1,.278.127.789.789,0,0,1,.176.146c.042.049.069.082.08.1l.133-.36c.372,0,.559,0,.931,0l-.019,1.822c-.411,0-.616,0-1.027,0a1.326,1.326,0,0,0-.049-.3.922.922,0,0,0-.116-.259.554.554,0,0,0-.188-.177.516.516,0,0,0-.272-.063.449.449,0,0,0-.283.106.8.8,0,0,0-.21.279,1.569,1.569,0,0,0-.126.408,2.375,2.375,0,0,0-.033.5,1.91,1.91,0,0,0,.068.454,1.339,1.339,0,0,0,.169.38.864.864,0,0,0,.261.26.629.629,0,0,0,.353.092.654.654,0,0,0,.327-.094,1.444,1.444,0,0,0,.272-.2,1.887,1.887,0,0,0,.193-.212c.05-.067.081-.108.093-.125.264.329.393.494.649.825" transform="translate(-813.163 -1251.873)" fill="#001b2b"/>
        <path id="패스_37" data-name="패스 37" d="M948.5,1303.283q.985.02,1.968.067l-.043.846-.362-.018-.125,2.782.344.016c-.017.341-.026.511-.044.852-.6-.032-1.208-.051-1.812-.061.006-.341.008-.512.014-.853l.35.007q.032-1.392.064-2.783l-.368-.007c.006-.339.008-.508.014-.847" transform="translate(-912.257 -1253.58)" fill="#001b2b"/>
        <path id="패스_38" data-name="패스 38" d="M1007.747,1306.715l-.383-.051-.474,3.626q-.583-.077-1.168-.139-.57-1.3-1.191-2.568l-.13,1.612.426.036c-.029.33-.044.495-.073.824q-.836-.071-1.673-.122l.047-.826.327.02q.089-1.412.177-2.824l-.339-.02c.019-.331.028-.5.047-.826q.85.052,1.7.122.618,1.232,1.189,2.485l.172-1.517-.4-.044.087-.823q.889.095,1.775.216l-.113.82" transform="translate(-964.826 -1255.67)" fill="#001b2b"/>
        <path id="패스_39" data-name="패스 39" d="M1127.58,1327.094a.858.858,0,0,1-.385.253,1.082,1.082,0,0,1-.57.04,1.523,1.523,0,0,1-.638-.268,1.681,1.681,0,0,1-.471-.532,2.325,2.325,0,0,1-.265-.759,3.009,3.009,0,0,1,0-.947,2.885,2.885,0,0,1,.284-.928,2.384,2.384,0,0,1,.509-.677,1.837,1.837,0,0,1,.648-.388,1.4,1.4,0,0,1,.7-.058,1.636,1.636,0,0,1,.509.163,1.293,1.293,0,0,1,.3.22.813.813,0,0,1,.155.213,1.578,1.578,0,0,0,.074.145l.212-.429c.348.069.522.106.87.18l-.4,1.85c-.4-.087-.605-.129-1.01-.208a1.124,1.124,0,0,0,.007-.352.753.753,0,0,0-.1-.28.658.658,0,0,0-.177-.194.566.566,0,0,0-.231-.1.559.559,0,0,0-.336.04.867.867,0,0,0-.294.215,1.32,1.32,0,0,0-.224.352,1.8,1.8,0,0,0-.133.443,1.986,1.986,0,0,0-.026.461,1.284,1.284,0,0,0,.084.4.8.8,0,0,0,.194.291.594.594,0,0,0,.306.15.579.579,0,0,0,.369-.026.636.636,0,0,0,.218-.184l.051-.264-.339-.065.126-.675c.623.117,1.244.243,1.863.382l-.15.67-.221-.049-.343,1.567q-.536-.118-1.075-.224c-.036-.172-.053-.258-.09-.429" transform="translate(-1082.299 -1272.362)" fill="#001b2b"/>
        <path id="패스_40" data-name="패스 40" d="M21.46,1055.927a2.325,2.325,0,0,1-.553-.065,2.691,2.691,0,0,1-1.363-.893,4.653,4.653,0,0,1-.779-1.595,8.149,8.149,0,0,1-.266-2.221,11.047,11.047,0,0,1,.272-2.442,9.386,9.386,0,0,1,.732-2.123,7.436,7.436,0,0,1,1.063-1.63,3.58,3.58,0,0,1,1.4-1.012,2.929,2.929,0,0,1,1.015-.212,1.842,1.842,0,0,1,.186.009,2.4,2.4,0,0,1,.5.1l.068-.363.39-.133c.494-.169,1-.337,1.5-.5l.922-.3v4.989l.739-.233v3.041l-.4.125v3.641l-.49.157c-.658.211-1.324.432-1.979.656l-.646.221-.067-.177a3.14,3.14,0,0,1-1.207.773,3.456,3.456,0,0,1-1.035.178m1.7-8.292a.613.613,0,0,0-.23.2,2.392,2.392,0,0,0-.329.585,4.459,4.459,0,0,0-.236.844,5.154,5.154,0,0,0-.086.946,4.779,4.779,0,0,0,.076.877,1.78,1.78,0,0,0,.18.537c.01.018.021.034.031.049v-2.788l.47-.167.317-.111,0-.168a2.207,2.207,0,0,0-.075-.566.619.619,0,0,0-.1-.226l-.01-.011" transform="translate(-17.794 -1002.796)" fill="#fff"/>
        <path id="패스_41" data-name="패스 41" d="M8.044,1019.085v4.3q-.894.288-1.781.6a2.884,2.884,0,0,0-.1-.751,1.284,1.284,0,0,0-.253-.495.734.734,0,0,0-.357-.231.628.628,0,0,0-.163-.021.736.736,0,0,0-.252.047,1.257,1.257,0,0,0-.548.426,3.083,3.083,0,0,0-.429.757,5.143,5.143,0,0,0-.276.978,5.835,5.835,0,0,0-.1,1.079,5.452,5.452,0,0,0,.089,1.008,2.452,2.452,0,0,0,.261.754.979.979,0,0,0,.424.417.627.627,0,0,0,.27.059.909.909,0,0,0,.308-.059,1.306,1.306,0,0,0,.633-.438,2.215,2.215,0,0,0,.317-.614v-.612c-.242.085-.363.127-.6.214v-1.56q1.642-.581,3.3-1.106v1.559l-.4.126v3.644q-1,.321-1.991.66l-.308-.811a3.02,3.02,0,0,1-.594.939,2.52,2.52,0,0,1-1,.684,2.815,2.815,0,0,1-.826.147,1.6,1.6,0,0,1-.385-.045,1.99,1.99,0,0,1-.976-.643,3.949,3.949,0,0,1-.655-1.352,7.555,7.555,0,0,1-.239-2.029,10.273,10.273,0,0,1,.254-2.284,8.828,8.828,0,0,1,.675-1.964,6.8,6.8,0,0,1,.961-1.479,2.913,2.913,0,0,1,1.122-.819,2.239,2.239,0,0,1,.766-.167q.059,0,.113.005a1.347,1.347,0,0,1,.559.165.988.988,0,0,1,.322.3,2.24,2.24,0,0,0,.169.233l.209-1.121q.739-.253,1.483-.493m1.411-1.938-1.844.6c-.5.162-1.008.331-1.507.5l-.779.267-.015.081-.12,0a3.575,3.575,0,0,0-1.263.257,4.275,4.275,0,0,0-1.681,1.2,8.107,8.107,0,0,0-1.166,1.781,10.067,10.067,0,0,0-.789,2.281,11.6,11.6,0,0,0-.29,2.6,8.838,8.838,0,0,0,.292,2.412,5.362,5.362,0,0,0,.9,1.838,3.4,3.4,0,0,0,1.75,1.143,3.025,3.025,0,0,0,.722.086,4.13,4.13,0,0,0,1.244-.21,3.372,3.372,0,0,0,.95-.486l.988-.338c.651-.222,1.312-.442,1.966-.652l.98-.315v-3.636l.4-.125v-4.522l-.739.234v-5Z" transform="translate(0 -978.356)" fill="#001b2b"/>
        <path id="패스_42" data-name="패스 42" d="M222.3,1020.8l.561-.173v-4.878l-.561.173v-3.387l.5-.152c1.086-.331,2.193-.648,3.29-.943l.013,0,.013,0a5.474,5.474,0,0,1,1.229-.18,2.829,2.829,0,0,1,.472.039,2.179,2.179,0,0,1,1.257.65,2.461,2.461,0,0,1,.589,1.192,6.258,6.258,0,0,1,.122,1.3,3.735,3.735,0,0,1-.139,1,3.4,3.4,0,0,1-.713,1.323,2.162,2.162,0,0,1,.154.176,2.612,2.612,0,0,1,.406.762q.022.064.041.131l.412-.091.856-.187v1.678a6.275,6.275,0,0,1-.08,1,3.613,3.613,0,0,1-.3.99,2.745,2.745,0,0,1-.616.834,2.347,2.347,0,0,1-1.01.525,2.632,2.632,0,0,1-.665.087,2.081,2.081,0,0,1-1.166-.333v.522l-.522.14c-1.074.289-2.159.6-3.224.925l-.911.278Zm4.043-5.492a1.537,1.537,0,0,0,.012-.2,2.111,2.111,0,0,0-.012-.241Z" transform="translate(-213.819 -972.686)" fill="#fff"/>
        <path id="패스_43" data-name="패스 43" d="M209.546,994.163a2.1,2.1,0,0,1,.354.029,1.467,1.467,0,0,1,.857.433,1.764,1.764,0,0,1,.416.857,5.588,5.588,0,0,1,.107,1.149,3.021,3.021,0,0,1-.112.813,2.756,2.756,0,0,1-.31.706,2.727,2.727,0,0,1-.467.563,2.082,2.082,0,0,1-.583.383h.029a1.009,1.009,0,0,1,.473.117,1.3,1.3,0,0,1,.421.358,1.908,1.908,0,0,1,.294.557,2.187,2.187,0,0,1,.112.717,3.839,3.839,0,0,0,.051.717q.045.221.161.221a.138.138,0,0,0,.032,0q.234-.054.234-.52v-.481c.272-.062.409-.092.681-.152v.8a5.549,5.549,0,0,1-.071.89,2.9,2.9,0,0,1-.244.8,2.033,2.033,0,0,1-.457.62,1.652,1.652,0,0,1-.711.362,1.933,1.933,0,0,1-.486.064,1.272,1.272,0,0,1-1-.413,2.983,2.983,0,0,1-.48-1.873c-.006-.323-.01-.6-.03-.808a1.01,1.01,0,0,0-.136-.467.4.4,0,0,0-.308-.173q-.035,0-.074,0a1.8,1.8,0,0,0-.46.075v2.259c.246-.067.369-.1.615-.166v1.924q-1.631.439-3.247.931v-1.924l.561-.17V997l-.561.171v-1.909q1.626-.5,3.267-.937a4.854,4.854,0,0,1,1.072-.162m-1.707,4.705.454-.123a1.235,1.235,0,0,0,.707-.485,1.592,1.592,0,0,0,.263-.949,1.36,1.36,0,0,0-.238-.915.549.549,0,0,0-.424-.178,1,1,0,0,0-.257.037l-.5.137v2.478m1.707-6.116h0a6.123,6.123,0,0,0-1.386.2l-.026.006-.026.007c-1.1.3-2.218.616-3.312.95l-1,.3v4.865l.561-.173v3.4l-.561.173v4.871l1.822-.556c1.057-.322,2.135-.631,3.2-.918l1.045-.281v-.058a3.128,3.128,0,0,0,.461.034,3.335,3.335,0,0,0,.844-.11,3.042,3.042,0,0,0,1.309-.688,3.446,3.446,0,0,0,.774-1.047,4.318,4.318,0,0,0,.366-1.183,6.982,6.982,0,0,0,.089-1.116v-2.554l-1.541.336q-.068-.134-.147-.259l.035-.055a4.177,4.177,0,0,0,.47-1.066,4.439,4.439,0,0,0,.166-1.192,7.027,7.027,0,0,0-.136-1.446,3.158,3.158,0,0,0-.762-1.527,2.88,2.88,0,0,0-1.657-.867,3.558,3.558,0,0,0-.589-.048" transform="translate(-196.024 -954.891)" fill="#001b2b"/>
        <path id="패스_44" data-name="패스 44" d="M414.84,970.342l.557-.12.244-.052c.355-1.72.713-3.457,1.07-5.181l-.219.043v-3.32l.572-.11c1.31-.252,2.643-.481,3.962-.68l.648-.1.145.639q.841,3.7,1.68,7.4l.879-.1v3.328l-.62.075c-1.362.165-2.739.362-4.093.584l-.373.061-.376.067c-1.073.192-2.158.4-3.225.631l-.852.181Z" transform="translate(-399.019 -924.181)" fill="#fff"/>
        <path id="패스_45" data-name="패스 45" d="M403.337,941.55q.911,4.013,1.82,8.027c.288-.037.432-.054.721-.089V951.4q-2.068.251-4.122.589v-1.909c.39-.065.584-.1.974-.157l-.216-.957q-1.052.169-2.1.358l-.215,1.031c.319-.059.479-.088.8-.144v1.909q-1.629.291-3.247.635v-1.909c.277-.06.416-.089.693-.146q.687-3.336,1.378-6.671l-.419.081v-1.88q1.961-.377,3.934-.676m-2.543,5.954q.67-.12,1.342-.229l-.677-3.035q-.333,1.632-.666,3.264m3.629-7.545-1.3.2c-1.328.2-2.67.431-3.989.685l-1.145.22v4.759l.018,0c-.255,1.232-.51,2.466-.762,3.692l-.908.2v4.791l1.7-.362c1.059-.225,2.137-.436,3.2-.627l.37-.066.368-.061c1.344-.221,2.711-.416,4.063-.58l1.241-.151V947.9l-1.037.123c-.5-2.215-1.018-4.492-1.539-6.786Z" transform="translate(-381.225 -904.112)" fill="#001b2b"/>
        <path id="패스_46" data-name="패스 46" d="M638.76,947.321l.608-.069v-5.007l-.6.068v-3.3l.628-.07c.988-.11,1.992-.207,2.983-.288l.478-.039.212.43.492,1v-1.479l.666-.037c1.04-.058,2.1-.1,3.138-.128l.723-.018v3.293l-.683.016v8.3l-.684.021c-.753.023-1.5.055-2.207.1l-.468.027-.206-.421-.5-1.025v1.49l-.649.052c-1.046.083-2.105.185-3.147.3l-.784.087Z" transform="translate(-614.4 -902.592)" fill="#fff"/>
        <path id="패스_47" data-name="패스 47" d="M629.59,920.849v1.88c-.273.006-.41.01-.684.018v8.307q-1.113.034-2.226.1-1.312-2.685-2.637-5.365v3.672c.318-.027.477-.04.8-.065v1.88q-1.587.127-3.169.3V929.7l.608-.067V923.2l-.6.066v-1.88q1.479-.164,2.962-.286,1.278,2.589,2.544,5.183v-3.468c-.286.014-.429.022-.714.039v-1.88q1.557-.087,3.116-.127M631,919.4l-1.447.037c-1.049.027-2.112.07-3.159.129l-.91.051h0l-.031,0-.39.022v.01l-.535.044c-1,.082-2.008.18-3,.29l-1.255.139v4.724l.6-.068v3.587l-.608.069v4.716l1.567-.174c1.035-.115,2.087-.216,3.126-.3l.871-.07v0l.936-.053c.705-.04,1.442-.072,2.189-.1l1.368-.042v-8.3l.683-.016V919.4Z" transform="translate(-596.605 -884.339)" fill="#001b2b"/>
        <path id="패스_48" data-name="패스 48" d="M859.99,946.574l.642-.011V941.65l-.642.011v-3.337l.7-.01c.5-.007,1-.011,1.494-.011.56,0,1.128,0,1.688.014h.021l.02,0a4.561,4.561,0,0,1,1.968.523,4.435,4.435,0,0,1,1.465,1.318,6.39,6.39,0,0,1,.86,1.806,7.256,7.256,0,0,1,.294,2.185,7.062,7.062,0,0,1-1.172,4.232,4.269,4.269,0,0,1-3.439,1.532H863.8c-.539-.009-1.084-.013-1.621-.013-.49,0-.987,0-1.476.011l-.716.01Zm4.177-.145a1.323,1.323,0,0,0,.231-.376,3.466,3.466,0,0,0,.224-.853,9.51,9.51,0,0,0,.081-1.191,5.776,5.776,0,0,0-.079-1.007,3.462,3.462,0,0,0-.225-.812,1.377,1.377,0,0,0-.232-.375Z" transform="translate(-827.192 -902.519)" fill="#fff"/>
        <path id="패스_49" data-name="패스 49" d="M844.384,921.214q.838,0,1.676.014a3.836,3.836,0,0,1,1.673.434,3.756,3.756,0,0,1,1.232,1.1,5.733,5.733,0,0,1,.766,1.61,6.585,6.585,0,0,1,.264,1.969,6.364,6.364,0,0,1-1.024,3.81,3.582,3.582,0,0,1-2.882,1.259h-.069q-.816-.013-1.631-.013-.743,0-1.487.011v-1.938c.257,0,.385-.006.642-.009V923.14l-.642.009v-1.924q.742-.011,1.483-.01m1.7,8.263a1.014,1.014,0,0,0,.685-.246,1.87,1.87,0,0,0,.482-.693,4.209,4.209,0,0,0,.274-1.033,10.359,10.359,0,0,0,.088-1.279,6.508,6.508,0,0,0-.088-1.133,4.132,4.132,0,0,0-.274-.978,1.953,1.953,0,0,0-.482-.692,1.062,1.062,0,0,0-.71-.271l-.394-.007q0,3.163,0,6.325l.394.007h.025m-1.7-9.674c-.5,0-1,0-1.5.011l-1.391.02v4.75l.642-.011v3.5l-.642.011v4.757l1.432-.021c.486-.007.98-.011,1.466-.011.534,0,1.075,0,1.609.013h.092a4.967,4.967,0,0,0,4-1.806,6.017,6.017,0,0,0,1.072-2.362,10.906,10.906,0,0,0,.248-2.292,7.97,7.97,0,0,0-.324-2.4,7.188,7.188,0,0,0-.955-2,5.143,5.143,0,0,0-1.7-1.531,5.208,5.208,0,0,0-2.263-.613l-.041,0h-.041c-.564-.009-1.136-.014-1.7-.014" transform="translate(-809.398 -884.725)" fill="#001b2b"/>
        <path id="패스_50" data-name="패스 50" d="M1062.3,954.492c-2.042-.28-4.119-.5-6.174-.642l-.656-.046v-3.351l.651.044v-4.911l-.651-.044V942.2l.755.053c2.086.148,4.195.367,6.266.651l.609.084v4.648l-.8-.113c-.219-.031-.441-.061-.668-.091v2.249c.3.039.583.077.864.117l.607.085V954.6Zm-2.391-3.658v-.956l-.239-.027v.956l.239.026m0-4.314v-.592l-.239-.026v.592l.239.026" transform="translate(-1015.217 -906.269)" fill="#fff"/>
        <path id="패스_51" data-name="패스 51" d="M1038.383,923.861q3.122.221,6.22.646v3.221q-.889-.125-1.781-.231v-1.3q-.825-.1-1.65-.181v2.011q.98.1,1.959.218v1.938q-.979-.118-1.959-.218v2.375q.825.085,1.65.181v-1.355q.891.107,1.781.231v3.294q-3.1-.425-6.22-.646v-1.938l.651.047v-6.325c-.26-.02-.391-.029-.651-.047Zm-1.411-1.514V927.1l.651.044v3.5l-.651-.044v4.763l1.311.093c2.04.144,4.1.359,6.128.637l1.6.22v-6.138L1044.8,930l-.257-.036v-.823l1.472.207v-6.075l-1.219-.167c-2.087-.287-4.211-.507-6.312-.656Z" transform="translate(-997.425 -887.171)" fill="#001b2b"/>
        <path id="패스_52" data-name="패스 52" d="M1238.771,972.419a2.414,2.414,0,0,1-.465-.048,3.046,3.046,0,0,1-1.536-.812v.316l-.832-.152c-1.089-.2-2.195-.382-3.289-.545l-.6-.09V967.74l.575.084V962.9l-.575-.084v-3.338l.81.121c1.116.166,2.245.353,3.355.556l.013,0,.013,0a5.418,5.418,0,0,1,1.65.6,3.6,3.6,0,0,1,1.088,1.038,3.754,3.754,0,0,1,.522,1.307,7.463,7.463,0,0,1,.118,1.326,3.181,3.181,0,0,1-.147.979,2.322,2.322,0,0,1-.449.81,2.161,2.161,0,0,1-.247.241,3.417,3.417,0,0,1,.2.305,3.91,3.91,0,0,1,.361.842,3.367,3.367,0,0,1,.1.438c.252.057.392.089.655.15l.546.127v1.362a5.727,5.727,0,0,1-.081.98,2.65,2.65,0,0,1-.338.935,1.753,1.753,0,0,1-.759.684,1.6,1.6,0,0,1-.683.143m-2.625-7.953a.977.977,0,0,0,.031-.277,1.982,1.982,0,0,0-.031-.372Z" transform="translate(-1185.06 -922.883)" fill="#fff"/>
        <path id="패스_53" data-name="패스 53" d="M1214.96,939.654q1.671.249,3.332.552a4.731,4.731,0,0,1,1.44.513,2.89,2.89,0,0,1,.861.821,3.023,3.023,0,0,1,.417,1.045,6.708,6.708,0,0,1,.107,1.2,2.488,2.488,0,0,1-.112.762,1.622,1.622,0,0,1-.31.567,1.406,1.406,0,0,1-.469.353,1.3,1.3,0,0,1-.559.12h-.028a1.652,1.652,0,0,1,.5.344,2.516,2.516,0,0,1,.423.548,3.194,3.194,0,0,1,.3.69,2.665,2.665,0,0,1,.112.768,4.231,4.231,0,0,0,.051.74q.051.273.193.3a.2.2,0,0,0,.044.005c.126,0,.189-.14.189-.42v-.481c.272.061.409.092.681.155v.8a4.982,4.982,0,0,1-.071.858,1.945,1.945,0,0,1-.244.687,1.054,1.054,0,0,1-.458.414.9.9,0,0,1-.384.076,1.711,1.711,0,0,1-.329-.035,2.287,2.287,0,0,1-1.494-1.021,4.027,4.027,0,0,1-.485-2.09,8.185,8.185,0,0,0-.031-.822,1.416,1.416,0,0,0-.138-.529.749.749,0,0,0-.312-.313,1.825,1.825,0,0,0-.542-.171v2.259c.25.044.375.067.624.113v1.924q-1.651-.3-3.312-.549v-1.924l.575.086v-6.354l-.575-.086Zm3.363,4.911a.706.706,0,0,0,.5-.185,1.1,1.1,0,0,0,.265-.83,1.86,1.86,0,0,0-.24-1.023,1.009,1.009,0,0,0-.69-.451l-.512-.093v2.477l.461.083a1.188,1.188,0,0,0,.215.021m-4.774-6.548v4.766l.575.084v3.5l-.575-.084v4.772l1.2.179c1.086.162,2.185.344,3.266.541l1.234.226a3.727,3.727,0,0,0,1.124.421,3.124,3.124,0,0,0,.6.062,2.3,2.3,0,0,0,.982-.209,2.479,2.479,0,0,0,1.061-.953,3.345,3.345,0,0,0,.432-1.183,6.412,6.412,0,0,0,.092-1.1v-1.922l-1.092-.254-.224-.052-.015-.051a4.674,4.674,0,0,0-.349-.854,3.084,3.084,0,0,0,.48-.921,3.9,3.9,0,0,0,.183-1.2,8.092,8.092,0,0,0-.129-1.455,4.445,4.445,0,0,0-.627-1.569,4.285,4.285,0,0,0-1.315-1.256,6.058,6.058,0,0,0-1.859-.68l-.026-.006-.026,0c-1.118-.2-2.254-.393-3.378-.56Z" transform="translate(-1167.268 -902.244)" fill="#001b2b"/>
        <path id="패스_54" data-name="패스 54" d="M1435.2,1008.178a5.568,5.568,0,0,1-1.318-.207l-.042-.01-.012,0c-1.259-.355-2.541-.689-3.812-.994l-.541-.13v-3.343l.588.139v-4.962l-.588-.139v-3.333l.87.208c1.263.3,2.538.635,3.789.986a3.813,3.813,0,0,1,2.977,3.911,6.078,6.078,0,0,1-.058.9,2.775,2.775,0,0,1-.218.754,1.768,1.768,0,0,1-.273.42,3.7,3.7,0,0,1,.426.672,4.465,4.465,0,0,1,.34.965,4.662,4.662,0,0,1,.123,1.147,3.243,3.243,0,0,1-.908,2.6,2.137,2.137,0,0,1-1.342.424m-1.455-3.605a1.2,1.2,0,0,0,.032-.31,1.5,1.5,0,0,0-.137-.665.447.447,0,0,0-.072-.108v1.034l.177.049" transform="translate(-1374.963 -957.241)" fill="#fff"/>
        <path id="패스_55" data-name="패스 55" d="M1412.39,973.525q1.894.454,3.769.981a3.384,3.384,0,0,1,1.856,1.2,3.46,3.46,0,0,1,.6,2.031,5.441,5.441,0,0,1-.05.793,2.064,2.064,0,0,1-.16.562,1,1,0,0,1-.3.38,1.337,1.337,0,0,1-.471.22,3.259,3.259,0,0,1,.51.47,2.872,2.872,0,0,1,.42.634,3.736,3.736,0,0,1,.284.812,3.985,3.985,0,0,1,.1.974,2.629,2.629,0,0,1-.634,2.051,1.445,1.445,0,0,1-.911.277,5.082,5.082,0,0,1-1.18-.194q-1.91-.539-3.839-1v-1.894l.588.141v-6.412l-.588-.141Zm3.516,4.992a.339.339,0,0,0,.323-.18,2.106,2.106,0,0,0-.045-1.623.8.8,0,0,0-.478-.411c-.254-.071-.381-.106-.635-.174v2.186l.615.168a.825.825,0,0,0,.22.034m.134,4.226a.551.551,0,0,0,.406-.19,1.211,1.211,0,0,0,.246-.854,2.178,2.178,0,0,0-.211-.979.988.988,0,0,0-.634-.544c-.31-.087-.465-.13-.776-.214V982.5c.323.087.484.132.806.222a.6.6,0,0,0,.163.023m-5.061-11.007v4.785l.588.139v3.512l-.588-.139v4.792l1.082.26c1.262.3,2.536.635,3.785.987l.023.007.023.005.031.008a6.136,6.136,0,0,0,1.486.228,2.827,2.827,0,0,0,1.774-.572,2.958,2.958,0,0,0,1.048-1.761,6.839,6.839,0,0,0,.134-1.38,5.38,5.38,0,0,0-.141-1.32,5.147,5.147,0,0,0-.395-1.117q-.094-.19-.2-.366c.02-.037.038-.075.056-.113a3.469,3.469,0,0,0,.277-.946,6.729,6.729,0,0,0,.066-1,4.843,4.843,0,0,0-.875-2.87,4.744,4.744,0,0,0-2.622-1.723c-1.258-.354-2.54-.687-3.81-.992Z" transform="translate(-1357.168 -934.677)" fill="#001b2b"/>
        <path id="패스_56" data-name="패스 56" d="M1607.065,1054.7c-1.036-.4-2.092-.787-3.138-1.151l-.474-.165V1050l.566.2v-.605c-.584-1.633-1.178-3.286-1.769-4.92l-.648-.208v-3.35l.923.3c1.081.35,2.171.723,3.243,1.11v-.01l.567.215.074.027h0l.314.12c.886.336,1.779.69,2.655,1.05l.437.18v3.394l-.871-.36c-.49,1.084-.983,2.178-1.471,3.262v1.054l.55.214v3.405Z" transform="translate(-1540.521 -1001.405)" fill="#fff"/>
        <path id="패스_57" data-name="패스 57" d="M1584.513,1017.624q1.709.553,3.4,1.166v1.865l-.514-.186q.287.876.573,1.753.02.109.064.286t.094.37q.049.193.089.368t.059.27l.04.015a1.287,1.287,0,0,1,.054-.242q.045-.144.1-.3t.113-.307c.04-.1.072-.191.1-.269l.541-1.266-.541-.206v-1.865q1.326.5,2.637,1.043v1.865l-.527-.217q-.908,2.011-1.814,4.022v1.691l.551.212v1.895q-1.571-.606-3.16-1.159v-1.894l.565.2v-1.72q-.958-2.683-1.928-5.363l-.489-.158v-1.865m-1.411-1.939v4.834l.808.259c.468,1.3.938,2.6,1.4,3.9l-.359-.124v4.877l.947.33c1.04.362,2.089.747,3.116,1.143l1.918.74v-4.916l-.551-.214v-.42l1.128-2.5,1.214.5v-4.923l-.874-.36c-.836-.344-1.687-.681-2.532-1v-.009l-.534-.194-1.518-.577v.033c-.771-.27-1.548-.531-2.32-.781Z" transform="translate(-1522.727 -976.95)" fill="#001b2b"/>
        <path id="패스_58" data-name="패스 58" d="M41.674,1077.894a3.018,3.018,0,0,1-.594.938,2.523,2.523,0,0,1-1,.684,2.267,2.267,0,0,1-1.211.1,1.99,1.99,0,0,1-.976-.642,3.948,3.948,0,0,1-.655-1.352A7.552,7.552,0,0,1,37,1075.6a10.274,10.274,0,0,1,.254-2.283,8.826,8.826,0,0,1,.675-1.964,6.8,6.8,0,0,1,.961-1.479,2.912,2.912,0,0,1,1.122-.819,2.008,2.008,0,0,1,.879-.161,1.345,1.345,0,0,1,.559.165.99.99,0,0,1,.322.3,2.212,2.212,0,0,0,.169.233l.209-1.121q.739-.253,1.483-.493,0,2.15,0,4.3-.894.288-1.781.6a2.884,2.884,0,0,0-.1-.751,1.285,1.285,0,0,0-.253-.495.734.734,0,0,0-.357-.231.68.68,0,0,0-.416.026,1.255,1.255,0,0,0-.548.426,3.08,3.08,0,0,0-.429.757,5.146,5.146,0,0,0-.276.978,5.836,5.836,0,0,0-.1,1.079,5.451,5.451,0,0,0,.089,1.008,2.451,2.451,0,0,0,.261.754.979.979,0,0,0,.424.418.733.733,0,0,0,.578,0,1.3,1.3,0,0,0,.633-.438,2.211,2.211,0,0,0,.317-.614v-.612c-.242.084-.363.127-.6.213v-1.559q1.642-.581,3.3-1.106v1.559l-.4.126v3.643q-1,.321-1.991.66l-.308-.811" transform="translate(-35.589 -1027.238)" fill="#fff"/>
        <path id="패스_59" data-name="패스 59" d="M240.8,1030.851q1.626-.5,3.267-.937a3.654,3.654,0,0,1,1.426-.133,1.469,1.469,0,0,1,.856.434,1.764,1.764,0,0,1,.416.857,5.6,5.6,0,0,1,.107,1.149,3.023,3.023,0,0,1-.112.813,2.759,2.759,0,0,1-.31.706,2.727,2.727,0,0,1-.467.563,2.08,2.08,0,0,1-.583.383,1.009,1.009,0,0,1,.5.117,1.3,1.3,0,0,1,.421.358,1.9,1.9,0,0,1,.294.557,2.187,2.187,0,0,1,.112.717,3.842,3.842,0,0,0,.051.717q.051.25.193.218.234-.054.234-.52v-.481c.272-.062.409-.092.681-.152v.8a5.547,5.547,0,0,1-.071.89,2.9,2.9,0,0,1-.244.8,2.024,2.024,0,0,1-.458.62,1.65,1.65,0,0,1-.711.362,1.449,1.449,0,0,1-1.484-.349,2.982,2.982,0,0,1-.48-1.872c-.006-.323-.01-.6-.03-.808a1.008,1.008,0,0,0-.136-.467.4.4,0,0,0-.308-.173,1.57,1.57,0,0,0-.534.072v2.259l.615-.166v1.924q-1.631.439-3.247.931v-1.924l.561-.171v-6.354l-.561.171v-1.909m2.632,1.129v2.478l.454-.123a1.237,1.237,0,0,0,.707-.485,1.592,1.592,0,0,0,.263-.949,1.361,1.361,0,0,0-.238-.915.636.636,0,0,0-.682-.141l-.5.137" transform="translate(-231.614 -990.481)" fill="#fff"/>
        <path id="패스_60" data-name="패스 60" d="M441.467,991.536q-2.068.251-4.122.589v-1.909c.39-.065.584-.1.974-.157l-.215-.957q-1.052.169-2.1.358l-.215,1.031c.319-.059.479-.088.8-.144v1.909q-1.629.291-3.247.635v-1.909c.277-.06.415-.089.693-.146q.687-3.336,1.378-6.672l-.419.081v-1.88q1.961-.377,3.934-.676.911,4.013,1.82,8.027c.288-.037.432-.054.721-.089v1.909m-5.085-3.894q.67-.12,1.342-.229l-.677-3.035q-.333,1.632-.666,3.264" transform="translate(-416.814 -944.249)" fill="#fff"/>
        <path id="패스_61" data-name="패스 61" d="M665.179,959.236c-.273.006-.41.01-.683.018v8.307q-1.113.034-2.226.1-1.312-2.686-2.637-5.365v3.673c.318-.028.477-.041.8-.065v1.88q-1.587.127-3.169.3V966.2l.608-.067V959.71l-.6.066V957.9q1.48-.164,2.963-.286,1.278,2.589,2.544,5.183v-3.469c-.286.015-.429.022-.714.039v-1.88q1.557-.087,3.116-.127v1.88" transform="translate(-632.194 -920.845)" fill="#fff"/>
        <path id="패스_62" data-name="패스 62" d="M878.49,967v-1.938l.642-.008v-6.325l-.642.009v-1.924q1.58-.023,3.16,0a3.833,3.833,0,0,1,1.672.434,3.754,3.754,0,0,1,1.232,1.1,5.738,5.738,0,0,1,.766,1.61,6.583,6.583,0,0,1,.264,1.969,6.363,6.363,0,0,1-1.024,3.81A3.6,3.6,0,0,1,881.608,967q-1.559-.025-3.118,0m4.713-5.186a6.515,6.515,0,0,0-.088-1.133,4.139,4.139,0,0,0-.275-.979,1.95,1.95,0,0,0-.481-.692,1.062,1.062,0,0,0-.709-.271l-.394-.007v6.325l.394.007a1.018,1.018,0,0,0,.709-.246,1.868,1.868,0,0,0,.481-.693,4.213,4.213,0,0,0,.275-1.033,10.363,10.363,0,0,0,.088-1.279" transform="translate(-844.987 -920.314)" fill="#fff"/>
        <path id="패스_63" data-name="패스 63" d="M1073.972,962.057q3.122.221,6.22.646v3.221q-.889-.125-1.781-.231v-1.3q-.825-.1-1.65-.181v2.011q.981.1,1.959.218v1.938q-.979-.118-1.959-.218v2.375q.826.085,1.65.181v-1.355q.891.107,1.781.231v3.294q-3.1-.426-6.22-.646v-1.938l.651.047v-6.325l-.651-.047v-1.924" transform="translate(-1033.014 -925.367)" fill="#fff"/>
        <path id="패스_64" data-name="패스 64" d="M1250.548,980.934q1.671.249,3.332.553a4.73,4.73,0,0,1,1.44.513,2.889,2.889,0,0,1,.861.821,3.021,3.021,0,0,1,.417,1.045,6.738,6.738,0,0,1,.107,1.2,2.484,2.484,0,0,1-.112.762,1.623,1.623,0,0,1-.31.567,1.4,1.4,0,0,1-.469.352,1.313,1.313,0,0,1-.586.12,1.649,1.649,0,0,1,.5.344,2.523,2.523,0,0,1,.423.548,3.2,3.2,0,0,1,.3.69,2.668,2.668,0,0,1,.112.768,4.233,4.233,0,0,0,.051.74q.051.273.193.3.234.052.234-.414v-.481c.272.061.409.092.681.155v.8a4.987,4.987,0,0,1-.071.858,1.944,1.944,0,0,1-.244.687,1.054,1.054,0,0,1-.457.414,1.156,1.156,0,0,1-.712.041,2.287,2.287,0,0,1-1.494-1.021,4.028,4.028,0,0,1-.485-2.09c0-.327-.01-.6-.031-.822a1.415,1.415,0,0,0-.138-.529.749.749,0,0,0-.312-.313,1.83,1.83,0,0,0-.542-.171v2.259c.25.044.375.067.624.113v1.924q-1.651-.3-3.311-.549V989.2l.575.086v-6.354l-.575-.086v-1.909m2.687,2.33v2.477l.461.083a.783.783,0,0,0,.715-.164,1.1,1.1,0,0,0,.266-.83,1.858,1.858,0,0,0-.24-1.023,1.007,1.007,0,0,0-.69-.45l-.512-.092" transform="translate(-1202.855 -943.524)" fill="#fff"/>
        <path id="패스_65" data-name="패스 65" d="M1447.979,1028.841v-1.895c.235.056.353.084.588.141v-6.412l-.588-.141v-1.88q1.894.454,3.769.981a3.382,3.382,0,0,1,1.856,1.2,3.461,3.461,0,0,1,.6,2.031,5.436,5.436,0,0,1-.05.793,2.06,2.06,0,0,1-.16.562,1,1,0,0,1-.3.38,1.328,1.328,0,0,1-.471.22,3.261,3.261,0,0,1,.511.47,2.883,2.883,0,0,1,.42.634,3.742,3.742,0,0,1,.285.812,3.991,3.991,0,0,1,.1.974,2.627,2.627,0,0,1-.634,2.051,2.457,2.457,0,0,1-2.091.083q-1.91-.539-3.839-1m2.681-7.584v2.186l.615.169c.268.075.449.027.543-.146a2.107,2.107,0,0,0-.045-1.623.8.8,0,0,0-.478-.412c-.254-.071-.381-.105-.635-.174m.806,6.591a.539.539,0,0,0,.568-.166,1.212,1.212,0,0,0,.246-.854,2.175,2.175,0,0,0-.211-.979.988.988,0,0,0-.634-.544c-.31-.087-.465-.13-.776-.213v2.536c.323.087.484.132.806.222" transform="translate(-1392.757 -979.805)" fill="#fff"/>
        <path id="패스_66" data-name="패스 66" d="M1623.9,1072.442a1.267,1.267,0,0,1,.054-.242c.029-.1.062-.2.1-.3s.074-.206.113-.307.072-.191.1-.269l.541-1.266-.541-.206v-1.866q1.326.5,2.638,1.043v1.865l-.528-.217q-.909,2.011-1.814,4.022v1.691l.551.212v1.895q-1.571-.606-3.16-1.159v-1.895l.565.2v-1.72q-.959-2.683-1.928-5.363l-.489-.158v-1.865q1.709.553,3.4,1.166v1.865l-.514-.186.573,1.753q.02.109.064.286c.03.118.061.241.094.37s.063.252.089.368.046.207.059.27l.04.015" transform="translate(-1558.316 -1025.862)" fill="#fff"/>
      </g>
    </g>
    <g id="그룹_6" data-name="그룹 6" transform="translate(0.442 41.07)">
      <g id="그룹_5" data-name="그룹 5" clip-path="url(#clip-path-3)">
        <path id="패스_67" data-name="패스 67" d="M43.895,1086.344a1.384,1.384,0,0,1-.341-.041,1.811,1.811,0,0,1-.874-.6,3.994,3.994,0,0,1-.623-1.343,7.905,7.905,0,0,1-.232-2.063,11.012,11.012,0,0,1,.249-2.338,9.135,9.135,0,0,1,.659-2,6.807,6.807,0,0,1,.934-1.5,2.715,2.715,0,0,1,1.049-.8,1.993,1.993,0,0,1,.7-.161.826.826,0,0,1,.094,0,1.132,1.132,0,0,1,.483.146.824.824,0,0,1,.264.249,2.452,2.452,0,0,0,.185.265l.25.292.257-1.443c.377-.134.758-.267,1.137-.4v4.079c-.456.154-.926.318-1.426.5a2.993,2.993,0,0,0-.1-.573,1.556,1.556,0,0,0-.292-.589.914.914,0,0,0-.446-.3.779.779,0,0,0-.211-.029.885.885,0,0,0-.315.06,1.449,1.449,0,0,0-.63.506,3.459,3.459,0,0,0-.455.836,5.769,5.769,0,0,0-.286,1.057,6.5,6.5,0,0,0-.1,1.162,6.148,6.148,0,0,0,.092,1.087,2.835,2.835,0,0,0,.282.845,1.185,1.185,0,0,0,.5.513.783.783,0,0,0,.348.08,1.05,1.05,0,0,0,.37-.073,1.494,1.494,0,0,0,.719-.524,2.557,2.557,0,0,0,.343-.693l.009-.03v-.939l-.244.089-.36.132v-1.218c.969-.356,1.954-.7,2.934-1.027v1.223l-.271.09-.128.043v3.8c-.565.19-1.135.387-1.7.587l-.424-1.166-.166.5a3.036,3.036,0,0,1-.557.914,2.338,2.338,0,0,1-.915.658,2.511,2.511,0,0,1-.771.145" transform="translate(-40.654 -1075.135)" fill="#cccccf"/>
        <path id="패스_68" data-name="패스 68" d="M43.262,1068.5v3.675c-.351.119-.71.244-1.086.378a2.864,2.864,0,0,0-.078-.37,1.744,1.744,0,0,0-.331-.662,1.094,1.094,0,0,0-.535-.356.96.96,0,0,0-.259-.036,1.07,1.07,0,0,0-.377.072,1.632,1.632,0,0,0-.712.568,3.653,3.653,0,0,0-.481.883,5.961,5.961,0,0,0-.3,1.094,6.706,6.706,0,0,0-.1,1.2,6.346,6.346,0,0,0,.1,1.123,3.027,3.027,0,0,0,.3.9,1.367,1.367,0,0,0,.586.591.961.961,0,0,0,.426.1,1.229,1.229,0,0,0,.433-.084,1.675,1.675,0,0,0,.8-.591,2.754,2.754,0,0,0,.369-.746l.019-.059v-1.24l-.489.178-.115.042v-.811c.849-.311,1.709-.613,2.566-.9v.819l-.143.047-.256.085v3.8c-.468.158-.938.32-1.4.485l-.181-.5-.358-.986-.333,1a2.77,2.77,0,0,1-.52.848,2.151,2.151,0,0,1-.833.6,2.348,2.348,0,0,1-.717.136,1.188,1.188,0,0,1-.3-.036,1.629,1.629,0,0,1-.773-.534,3.8,3.8,0,0,1-.59-1.277,7.712,7.712,0,0,1-.225-2.011,10.812,10.812,0,0,1,.244-2.295,9.065,9.065,0,0,1,.644-1.962,6.621,6.621,0,0,1,.907-1.46,2.537,2.537,0,0,1,.976-.75,1.85,1.85,0,0,1,.636-.149.726.726,0,0,1,.075,0,.981.981,0,0,1,.406.119.646.646,0,0,1,.205.191,2.594,2.594,0,0,0,.2.287l.5.585.137-.77.169-.948c.263-.093.528-.186.792-.277m.368-.529q-.743.25-1.482.514l-.208,1.169a2.306,2.306,0,0,1-.169-.243,1.006,1.006,0,0,0-.322-.308,1.3,1.3,0,0,0-.559-.172,1.017,1.017,0,0,0-.113-.006,2.162,2.162,0,0,0-.766.174,2.921,2.921,0,0,0-1.122.854,7.123,7.123,0,0,0-.961,1.542,9.475,9.475,0,0,0-.674,2.048A11.154,11.154,0,0,0,37,1075.92a8.2,8.2,0,0,0,.239,2.116,4.194,4.194,0,0,0,.655,1.409,1.985,1.985,0,0,0,.975.67,1.536,1.536,0,0,0,.384.047,2.716,2.716,0,0,0,.826-.153,2.52,2.52,0,0,0,1-.713,3.169,3.169,0,0,0,.594-.979l.307.846q.992-.354,1.99-.688v-3.8l.4-.131v-1.626q-1.66.547-3.3,1.153v1.626c.241-.09.362-.135.6-.222v.638a2.342,2.342,0,0,1-.317.64,1.3,1.3,0,0,1-.633.457.869.869,0,0,1-.308.062.606.606,0,0,1-.27-.062,1,1,0,0,1-.424-.436,2.631,2.631,0,0,1-.261-.786,5.921,5.921,0,0,1-.089-1.051,6.34,6.34,0,0,1,.1-1.125,5.542,5.542,0,0,1,.276-1.02,3.25,3.25,0,0,1,.429-.789,1.263,1.263,0,0,1,.548-.444.709.709,0,0,1,.252-.049.6.6,0,0,1,.163.022.732.732,0,0,1,.356.241,1.361,1.361,0,0,1,.253.516,3.128,3.128,0,0,1,.1.783q.887-.32,1.78-.621v-4.482" transform="translate(-36.013 -1068.761)" fill="#fff"/>
        <path id="패스_69" data-name="패스 69" d="M245.622,1044.287l.43-.136.131-.041v-7.026l-.237.074-.324.1v-1.589c1.033-.327,2.084-.64,3.126-.933a4.513,4.513,0,0,1,1.027-.163,1.838,1.838,0,0,1,.323.027,1.266,1.266,0,0,1,.752.393,1.688,1.688,0,0,1,.371.8,5.823,5.823,0,0,1,.1,1.157,3.09,3.09,0,0,1-.1.8,2.751,2.751,0,0,1-.289.688,2.638,2.638,0,0,1-.435.548,1.911,1.911,0,0,1-.531.365l-.871.395.95-.027h.024a.793.793,0,0,1,.387.1,1.133,1.133,0,0,1,.361.322,1.831,1.831,0,0,1,.265.525,2.181,2.181,0,0,1,.1.685,4.317,4.317,0,0,0,.054.786c.065.335.242.384.341.384a.3.3,0,0,0,.073-.009c.25-.06.376-.3.376-.729v-.348l.313-.073v.6a5.856,5.856,0,0,1-.069.9,2.931,2.931,0,0,1-.228.779,1.93,1.93,0,0,1-.416.589,1.449,1.449,0,0,1-.632.333,1.672,1.672,0,0,1-.44.06,1.069,1.069,0,0,1-.857-.362,3.048,3.048,0,0,1-.436-1.832l0-.092c-.006-.3-.01-.561-.029-.766a1.258,1.258,0,0,0-.168-.577.58.58,0,0,0-.442-.263c-.029,0-.06,0-.091,0a1.884,1.884,0,0,0-.509.085l-.135.039v2.753l.232-.067.382-.108v1.609c-.959.271-1.925.559-2.877.859Zm3.208-7.952a1.149,1.149,0,0,0-.3.045l-.5.143-.135.039v2.981l.232-.067.453-.128a1.423,1.423,0,0,0,.808-.579,1.912,1.912,0,0,0,.3-1.1,1.622,1.622,0,0,0-.286-1.084.714.714,0,0,0-.56-.248" transform="translate(-236.683 -1036.698)" fill="#cccccf"/>
        <path id="패스_70" data-name="패스 70" d="M245.133,1030.136h0a1.69,1.69,0,0,1,.292.024,1.09,1.09,0,0,1,.647.334,1.5,1.5,0,0,1,.326.711,5.7,5.7,0,0,1,.1,1.117,2.889,2.889,0,0,1-.1.744,2.558,2.558,0,0,1-.268.639,2.451,2.451,0,0,1-.4.508,1.723,1.723,0,0,1-.48.33l-1.743.789,1.9-.054h.019a.618.618,0,0,1,.3.079.949.949,0,0,1,.3.27,1.641,1.641,0,0,1,.236.47,1.984,1.984,0,0,1,.092.623,4.5,4.5,0,0,0,.058.824c.1.5.424.539.522.539a.5.5,0,0,0,.114-.014.635.635,0,0,0,.458-.469,5.62,5.62,0,0,1-.06.6,2.735,2.735,0,0,1-.212.726,1.74,1.74,0,0,1-.375.531,1.276,1.276,0,0,1-.555.289,1.52,1.52,0,0,1-.393.054.9.9,0,0,1-.716-.294,2.9,2.9,0,0,1-.393-1.712l0-.091c-.006-.305-.01-.569-.03-.781a1.442,1.442,0,0,0-.2-.667.757.757,0,0,0-.576-.345c-.035,0-.071-.005-.109-.005a2.059,2.059,0,0,0-.557.092l-.271.078v3.151l.465-.133.15-.043v1.211c-.836.237-1.678.488-2.509.748V1039.8l.3-.094.262-.082v-7.426l-.474.149-.087.027v-1.188c.988-.311,1.992-.61,2.986-.889a4.372,4.372,0,0,1,.982-.157m-2.074,5.025.465-.133.452-.128a1.6,1.6,0,0,0,.91-.653,2.1,2.1,0,0,0,.332-1.213,1.8,1.8,0,0,0-.334-1.214.9.9,0,0,0-.7-.31,1.323,1.323,0,0,0-.352.052l-.506.143-.271.078v3.379m2.074-5.409a4.667,4.667,0,0,0-1.071.169q-1.641.46-3.265.977v1.99l.561-.178v6.625l-.561.178v2.006q1.615-.514,3.245-.971,0-1,0-2.006l-.615.173v-2.355a1.734,1.734,0,0,1,.46-.078c.026,0,.051,0,.074,0a.4.4,0,0,1,.308.181,1.085,1.085,0,0,1,.136.487c.02.217.024.505.03.843a3.214,3.214,0,0,0,.48,1.952,1.245,1.245,0,0,0,1,.43,1.858,1.858,0,0,0,.486-.066,1.626,1.626,0,0,0,.71-.377,2.113,2.113,0,0,0,.457-.647,3.117,3.117,0,0,0,.244-.831,6.024,6.024,0,0,0,.071-.928v-.836c-.273.062-.409.094-.681.158v.5q0,.487-.234.542a.145.145,0,0,1-.032,0q-.116,0-.161-.231a4.175,4.175,0,0,1-.051-.748,2.372,2.372,0,0,0-.112-.748,2.017,2.017,0,0,0-.294-.581,1.312,1.312,0,0,0-.421-.373.975.975,0,0,0-.473-.123H245.4a2.08,2.08,0,0,0,.582-.4,2.817,2.817,0,0,0,.466-.587,2.936,2.936,0,0,0,.309-.736,3.278,3.278,0,0,0,.112-.848,6.077,6.077,0,0,0-.107-1.2,1.871,1.871,0,0,0-.416-.893,1.447,1.447,0,0,0-.856-.452,2.019,2.019,0,0,0-.354-.03m-1.706,4.906v-2.583l.5-.142a.963.963,0,0,1,.257-.039.539.539,0,0,1,.424.186,1.464,1.464,0,0,1,.237.954,1.713,1.713,0,0,1-.263.99,1.235,1.235,0,0,1-.706.506l-.453.128" transform="translate(-232.042 -1032.065)" fill="#fff"/>
        <path id="패스_71" data-name="패스 71" d="M438.164,996.76l.546-.12.118-.026.024-.124c.456-2.309.919-4.649,1.377-6.955l.056-.281-.471.094v-1.569c1.194-.237,2.405-.455,3.606-.646q.892,4.1,1.782,8.2l.037.17.166-.022.513-.066v1.6c-1.249.16-2.509.348-3.752.558v-1.6c.293-.051.481-.082.818-.137l.194-.031-.3-1.374-.171.029c-.7.117-1.406.243-2.1.374l-.122.023-.3,1.481.27-.052.58-.11v1.6c-.958.18-1.924.377-2.878.586Zm3.342-7.078q-.333,1.7-.665,3.4l-.054.277.267-.05c.444-.083.894-.163,1.339-.238l.192-.033-.906-4.24Z" transform="translate(-421.886 -991.141)" fill="#cccccf"/>
        <path id="패스_72" data-name="패스 72" d="M438.64,982.121c.592,2.72,1.178,5.417,1.744,8.021l.074.34.331-.044.306-.04v1.219c-1.127.147-2.262.315-3.384.5V990.9c.214-.037.39-.066.663-.11l.389-.063-.086-.4-.215-1-.076-.352-.341.057c-.7.117-1.408.244-2.106.375l-.244.046-.051.253-.215,1.075-.112.56.539-.1.363-.07v1.212c-.836.159-1.677.33-2.51.51v-1.208l.4-.087.237-.051.049-.247c.455-2.3.918-4.642,1.377-6.955l.112-.562-.523.1V982.71c1.087-.214,2.188-.412,3.281-.589m-2.728,6.251.533-.1c.443-.083.892-.162,1.336-.238l.385-.065-.085-.4-.676-3.165-.375-1.754-.345,1.76q-.333,1.7-.665,3.4l-.108.554m3.011-6.684q-1.973.311-3.932.7v1.96l.419-.084q-.69,3.478-1.377,6.956c-.277.06-.416.09-.692.152v1.99q1.618-.359,3.246-.662v-1.99c-.319.059-.479.089-.8.151L436,989.79q1.048-.2,2.1-.374l.215,1c-.39.063-.585.1-.974.164v1.99q2.054-.352,4.12-.614v-1.991c-.288.036-.432.054-.721.092q-.909-4.185-1.819-8.369m-2.542,6.207q.332-1.7.665-3.4l.676,3.164q-.672.114-1.342.239" transform="translate(-417.246 -985.912)" fill="#fff"/>
        <path id="패스_73" data-name="패스 73" d="M662.084,971.509l.444-.051.164-.018v-7.087l-.2.023-.394.045v-1.573c.885-.1,1.781-.191,2.667-.268.831,1.756,1.667,3.534,2.487,5.286l.349.747v-4.649l-.193.01-.521.029v-1.575c.912-.052,1.834-.091,2.747-.117v1.576l-.5.015-.178.006v8.661c-.656.022-1.3.052-1.929.088-.852-1.818-1.72-3.661-2.582-5.479l-.349-.736V971.3l.2-.018c.246-.022.4-.035.6-.052v1.576c-.931.079-1.871.173-2.8.279Z" transform="translate(-637.271 -967.305)" fill="#cccccf"/>
        <path id="패스_74" data-name="패스 74" d="M664.807,957.751v1.191l-.327.01-.356.011v8.662c-.554.02-1.1.045-1.633.075-.834-1.78-1.684-3.584-2.529-5.366l-.7-1.472v5.889l.4-.036.4-.035v1.191c-.809.07-1.624.151-2.432.242v-1.189l.279-.031.329-.037v-7.472l-.407.045-.191.021v-1.187c.789-.089,1.585-.169,2.374-.238.812,1.717,1.63,3.455,2.431,5.168l.7,1.493v-5.681l-.386.02-.327.018v-1.19c.79-.043,1.588-.078,2.379-.1m.368-.394q-1.558.041-3.114.132v1.96c.285-.017.428-.026.714-.041v3.616q-1.266-2.705-2.543-5.4-1.483.127-2.961.3v1.96l.6-.069v6.7l-.608.07v1.96q1.582-.183,3.168-.316v-1.96c-.318.026-.477.039-.8.068V962.5q1.324,2.793,2.635,5.593,1.111-.066,2.224-.1v-8.661c.273-.009.41-.013.683-.019Z" transform="translate(-632.631 -962.549)" fill="#fff"/>
        <path id="패스_75" data-name="패스 75" d="M886.316,971.879h-.066c-.542-.009-1.092-.014-1.633-.014-.432,0-.869,0-1.3.009v-1.638l.46-.006.182,0v-6.978l-.186,0-.456.006v-1.622c.432-.006.868-.008,1.3-.008.553,0,1.114,0,1.667.014a3.558,3.558,0,0,1,1.589.428,3.646,3.646,0,0,1,1.17,1.094,5.869,5.869,0,0,1,.741,1.625,6.9,6.9,0,0,1,.256,1.995,6.461,6.461,0,0,1-.985,3.858,3.33,3.33,0,0,1-2.735,1.238m-.6-1.647.181,0,.393.007h.028a1.168,1.168,0,0,0,.8-.3,2.151,2.151,0,0,0,.53-.792,4.729,4.729,0,0,0,.287-1.125,11.23,11.23,0,0,0,.09-1.358,7.249,7.249,0,0,0-.09-1.215,4.676,4.676,0,0,0-.287-1.066,2.232,2.232,0,0,0-.528-.788,1.216,1.216,0,0,0-.828-.332l-.394-.007-.186,0Z" transform="translate(-850.069 -966.649)" fill="#cccccf"/>
        <path id="패스_76" data-name="패스 76" d="M879.973,957.187c.55,0,1.108,0,1.659.014a3.394,3.394,0,0,1,1.507.4,3.454,3.454,0,0,1,1.11,1.036,5.677,5.677,0,0,1,.716,1.572,6.7,6.7,0,0,1,.248,1.936,6.282,6.282,0,0,1-.947,3.743,3.151,3.151,0,0,1-2.59,1.164h-.063c-.543-.009-1.094-.014-1.636-.014-.371,0-.745,0-1.118.006v-1.254l.278,0,.364,0v-7.362l-.371,0-.27,0v-1.237c.372,0,.745-.006,1.115-.006m1.7,8.615a1.343,1.343,0,0,0,.924-.35,2.338,2.338,0,0,0,.579-.861,4.921,4.921,0,0,0,.3-1.174,11.445,11.445,0,0,0,.092-1.381,7.447,7.447,0,0,0-.093-1.249,4.872,4.872,0,0,0-.3-1.111,2.424,2.424,0,0,0-.574-.855,1.391,1.391,0,0,0-.947-.38l-.4-.007-.373-.006v7.362l.363.005.392.007h.032m-1.7-9q-.741,0-1.483.011v2.006c.257,0,.385-.006.642-.009v6.595c-.257,0-.385,0-.642.009v2.021q.743-.011,1.486-.011.815,0,1.63.013h.069a3.514,3.514,0,0,0,2.88-1.313,6.851,6.851,0,0,0,1.024-3.972,7.144,7.144,0,0,0-.263-2.053,6.1,6.1,0,0,0-.765-1.678,3.81,3.81,0,0,0-1.231-1.152,3.706,3.706,0,0,0-1.672-.452q-.838-.015-1.675-.015m1.7,8.615h-.025l-.393-.007q0-3.3,0-6.595l.393.007a1.037,1.037,0,0,1,.709.283,2.038,2.038,0,0,1,.481.722,4.463,4.463,0,0,1,.274,1.02,7.079,7.079,0,0,1,.088,1.181,11.26,11.26,0,0,1-.088,1.334,4.543,4.543,0,0,1-.274,1.077,1.955,1.955,0,0,1-.481.722.99.99,0,0,1-.684.257" transform="translate(-845.428 -962.017)" fill="#fff"/>
        <path id="패스_77" data-name="패스 77" d="M1084.646,978.11c-1.936-.272-3.9-.485-5.849-.633v-1.637l.453.035.2.016v-6.979l-.17-.013-.481-.036v-1.62c1.948.148,3.914.362,5.849.635v2.97c-.45-.065-.915-.128-1.412-.19V969.3l-.162-.02c-.548-.067-1.1-.13-1.652-.189l-.2-.022v2.483l.165.017c.594.064,1.2.133,1.793.207v1.634c-.584-.072-1.173-.14-1.755-.2l-.2-.022v2.863l.165.018c.547.058,1.1.122,1.646.188l.205.025v-1.412c.5.063.962.126,1.412.191Z" transform="translate(-1038.1 -972.04)" fill="#cccccf"/>
        <path id="패스_78" data-name="패스 78" d="M1074.34,962.47c1.826.143,3.667.343,5.481.6v2.583c-.336-.047-.682-.094-1.044-.14v-1.354l-.325-.04c-.548-.067-1.1-.13-1.654-.189l-.405-.043v2.868l.33.035c.54.058,1.086.121,1.628.187v1.248c-.517-.063-1.038-.122-1.553-.178l-.405-.043v3.248l.33.035c.546.059,1.1.122,1.644.188l.411.05V970.11c.362.047.708.094,1.044.142v2.661c-1.815-.251-3.656-.45-5.481-.592v-1.253l.255.02.4.031v-7.364l-.34-.027-.311-.024Zm-.368-.413v2.006l.651.049v6.594c-.26-.02-.391-.03-.651-.049v2.021q3.12.23,6.217.674v-3.434q-.889-.131-1.78-.241v1.413q-.824-.1-1.649-.189v-2.477q.98.1,1.958.228v-2.021q-.978-.123-1.958-.228v-2.1q.825.088,1.649.189v1.352q.891.111,1.78.241v-3.358q-3.1-.444-6.217-.674" transform="translate(-1033.459 -967.062)" fill="#fff"/>
        <path id="패스_79" data-name="패스 79" d="M1261.2,998.029a1.476,1.476,0,0,1-.293-.033,2.1,2.1,0,0,1-1.372-.975,4.2,4.2,0,0,1-.458-2.078c0-.318-.009-.621-.032-.876a1.725,1.725,0,0,0-.159-.623.952.952,0,0,0-.386-.405,1.955,1.955,0,0,0-.6-.2l-.216-.04v2.745l.151.028.472.089v1.616c-.975-.183-1.963-.354-2.942-.508v-1.618l.363.057.212.034v-7.013l-.156-.025-.419-.066v-1.6c1.036.163,2.081.345,3.11.541a4.384,4.384,0,0,1,1.381.511,2.744,2.744,0,0,1,.8.8,3.047,3.047,0,0,1,.39,1.018,7.151,7.151,0,0,1,.1,1.213,2.5,2.5,0,0,1-.1.736,1.525,1.525,0,0,1-.274.525,1.233,1.233,0,0,1-.407.32,1.091,1.091,0,0,1-.481.108h-.024l-.953-.018.878.387a1.473,1.473,0,0,1,.448.32,2.428,2.428,0,0,1,.392.53,3.233,3.233,0,0,1,.278.678,2.7,2.7,0,0,1,.1.745,4.749,4.749,0,0,0,.054.807c.048.272.161.43.334.47a.374.374,0,0,0,.084.01c.17,0,.373-.109.373-.629v-.262l.313.075v.683a5.231,5.231,0,0,1-.068.861,1.9,1.9,0,0,1-.219.649.879.879,0,0,1-.378.358.693.693,0,0,1-.306.061m-3.513-6.543.151.028.459.087a1.322,1.322,0,0,0,.248.025.867.867,0,0,0,.626-.245,1.36,1.36,0,0,0,.324-1.006,2.2,2.2,0,0,0-.27-1.172,1.186,1.186,0,0,0-.81-.553l-.512-.1-.216-.04Z" transform="translate(-1207.947 -990.568)" fill="#cccccf"/>
        <path id="패스_80" data-name="패스 80" d="M1250.917,981.379c.963.154,1.933.324,2.889.506a4.229,4.229,0,0,1,1.323.488,2.576,2.576,0,0,1,.743.737,2.832,2.832,0,0,1,.363.947,6.9,6.9,0,0,1,.1,1.177,2.3,2.3,0,0,1-.093.677,1.336,1.336,0,0,1-.238.458,1.032,1.032,0,0,1-.347.272.9.9,0,0,1-.4.089h-.021l-1.906-.036,1.756.773a1.3,1.3,0,0,1,.392.281,2.253,2.253,0,0,1,.36.489,3.032,3.032,0,0,1,.261.637,2.5,2.5,0,0,1,.1.69,4.943,4.943,0,0,0,.057.842c.079.442.3.582.476.622a.548.548,0,0,0,.124.015.519.519,0,0,0,.477-.335c.009-.021.017-.043.025-.065v.075a5.021,5.021,0,0,1-.065.828,1.706,1.706,0,0,1-.195.582.7.7,0,0,1-.3.285.52.52,0,0,1-.228.043,1.293,1.293,0,0,1-.257-.029,1.906,1.906,0,0,1-1.25-.887,4,4,0,0,1-.431-1.977c0-.324-.009-.634-.032-.9a1.9,1.9,0,0,0-.18-.7,1.14,1.14,0,0,0-.462-.484,2.1,2.1,0,0,0-.653-.219l-.432-.08v3.135l.3.056.32.06v1.227c-.854-.159-1.717-.307-2.574-.443v-1.23l.151.024.424.068v-7.4l-.312-.05-.263-.042Zm2.993,5.058a1.04,1.04,0,0,0,.751-.3,1.541,1.541,0,0,0,.383-1.146,2.389,2.389,0,0,0-.3-1.277,1.362,1.362,0,0,0-.931-.637l-.514-.1-.432-.08v3.363l.3.056.458.086a1.489,1.489,0,0,0,.281.028m-3.361-5.5v1.991l.575.09q0,3.313,0,6.625l-.575-.09v2.006q1.66.258,3.31.572v-2.006c-.249-.048-.374-.072-.624-.118v-2.355a1.776,1.776,0,0,1,.542.178.764.764,0,0,1,.312.326,1.526,1.526,0,0,1,.138.552c.021.227.033.516.031.857a4.349,4.349,0,0,0,.485,2.179,2.287,2.287,0,0,0,1.493,1.064,1.643,1.643,0,0,0,.328.037.866.866,0,0,0,.384-.079,1.07,1.07,0,0,0,.457-.432,2.083,2.083,0,0,0,.244-.717,5.413,5.413,0,0,0,.071-.894v-.836c-.272-.066-.408-.1-.68-.162v.5q0,.438-.189.437a.193.193,0,0,1-.044-.005q-.142-.033-.193-.318a4.6,4.6,0,0,1-.051-.771,2.883,2.883,0,0,0-.112-.8,3.415,3.415,0,0,0-.3-.72,2.613,2.613,0,0,0-.423-.571,1.646,1.646,0,0,0-.5-.359h.028a1.26,1.26,0,0,0,.558-.125,1.41,1.41,0,0,0,.469-.368,1.707,1.707,0,0,0,.31-.591,2.691,2.691,0,0,0,.112-.795,7.319,7.319,0,0,0-.107-1.248,3.235,3.235,0,0,0-.417-1.089,2.949,2.949,0,0,0-.861-.856,4.6,4.6,0,0,0-1.439-.535q-1.661-.317-3.33-.576m3.361,5.121a1.133,1.133,0,0,1-.214-.022l-.46-.087v-2.583l.511.1a1,1,0,0,1,.69.47,2,2,0,0,1,.24,1.066,1.174,1.174,0,0,1-.265.866.69.69,0,0,1-.5.193" transform="translate(-1203.306 -985.187)" fill="#fff"/>
        <path id="패스_81" data-name="패스 81" d="M1457.638,1036.212a4.62,4.62,0,0,1-1.1-.189l-.028-.007c-1.222-.359-2.466-.7-3.7-1.009v-1.581l.36.091.228.058v-7.08l-.14-.036-.448-.113v-1.565c1.179.3,2.366.622,3.533.964a3.188,3.188,0,0,1,1.757,1.178,3.49,3.49,0,0,1,.564,2,5.728,5.728,0,0,1-.048.8,2.03,2.03,0,0,1-.145.534.846.846,0,0,1-.245.325,1.136,1.136,0,0,1-.406.2l-.37.1.308.237a3.145,3.145,0,0,1,.481.463,2.828,2.828,0,0,1,.393.619,3.822,3.822,0,0,1,.27.8,4.113,4.113,0,0,1,.1.968c-.01.583-.027,1.558-.563,1.99a1.219,1.219,0,0,1-.8.249m-2.521-2.174.136.038c.322.091.48.136.8.231a.761.761,0,0,0,.212.031h0a.718.718,0,0,0,.538-.257,1.467,1.467,0,0,0,.3-1.023,2.556,2.556,0,0,0-.23-1.106,1.183,1.183,0,0,0-.748-.667c-.312-.091-.464-.135-.777-.223l-.232-.065Zm0-4.361.136.038c.245.069.368.1.613.175a.979.979,0,0,0,.27.042.515.515,0,0,0,.484-.288,1.989,1.989,0,0,0,.163-.908,2.029,2.029,0,0,0-.21-.97.992.992,0,0,0-.589-.52c-.254-.074-.381-.11-.636-.182l-.232-.065Z" transform="translate(-1397.853 -1027.291)" fill="#cccccf"/>
        <path id="패스_82" data-name="패스 82" d="M1448.347,1019.142c1.1.281,2.21.585,3.3.9h.006a3,3,0,0,1,1.652,1.106,3.338,3.338,0,0,1,.528,1.889,5.549,5.549,0,0,1-.046.77,1.851,1.851,0,0,1-.129.481.66.66,0,0,1-.19.254.965.965,0,0,1-.342.164l-.74.207.617.473a2.953,2.953,0,0,1,.453.435,2.648,2.648,0,0,1,.366.577,3.626,3.626,0,0,1,.256.763,3.9,3.9,0,0,1,.1.921c-.01.548-.026,1.466-.491,1.842a1.049,1.049,0,0,1-.685.209,4.481,4.481,0,0,1-1.06-.184l-.025-.006c-1.176-.346-2.373-.673-3.563-.975v-1.187l.133.034.455.116v-7.476l-.281-.071-.307-.078Zm3.146,5.1a.7.7,0,0,0,.646-.388,2.173,2.173,0,0,0,.186-1,2.224,2.224,0,0,0-.233-1.064,1.17,1.17,0,0,0-.7-.61c-.256-.074-.381-.11-.637-.182l-.464-.131v3.074l.272.077c.246.069.366.1.612.175a1.158,1.158,0,0,0,.319.049m.133,4.406a.9.9,0,0,0,.671-.316,1.647,1.647,0,0,0,.349-1.156,2.752,2.752,0,0,0-.25-1.192,1.378,1.378,0,0,0-.863-.766c-.313-.091-.465-.135-.779-.224l-.464-.131v3.439l.272.077c.322.091.48.136.8.231a.934.934,0,0,0,.262.039m-3.647-9.994v1.96l.588.147v6.686c-.235-.06-.353-.089-.588-.147v1.975q1.929.483,3.837,1.044a4.887,4.887,0,0,0,1.179.2,1.4,1.4,0,0,0,.91-.289,2.819,2.819,0,0,0,.634-2.138,4.338,4.338,0,0,0-.1-1.015,4.018,4.018,0,0,0-.285-.846,3.018,3.018,0,0,0-.42-.661,3.32,3.32,0,0,0-.511-.49,1.306,1.306,0,0,0,.47-.23,1.041,1.041,0,0,0,.3-.4,2.219,2.219,0,0,0,.16-.586,5.885,5.885,0,0,0,.05-.827,3.721,3.721,0,0,0-.6-2.117,3.369,3.369,0,0,0-1.855-1.249q-1.874-.55-3.767-1.023m3.514,5.2a.8.8,0,0,1-.22-.036l-.614-.176v-2.279c.254.072.381.108.634.181a.813.813,0,0,1,.478.429,2.285,2.285,0,0,1,.045,1.692.337.337,0,0,1-.323.188m.133,4.406a.577.577,0,0,1-.162-.025c-.322-.094-.483-.141-.806-.231v-2.644c.31.088.465.132.775.223a1,1,0,0,1,.633.568,2.349,2.349,0,0,1,.211,1.021,1.3,1.3,0,0,1-.246.891.542.542,0,0,1-.406.2" transform="translate(-1393.211 -1021.408)" fill="#fff"/>
        <path id="패스_83" data-name="패스 83" d="M1629.567,1085.1c-.923-.368-1.86-.726-2.791-1.066v-1.569l.32.117.245.09v-2.1l-.011-.031c-.635-1.855-1.283-3.736-1.927-5.592l-.031-.088-.085-.029-.362-.123v-1.541c1.011.344,2.027.708,3.027,1.086v1.536l-.268-.1-.354-.133.117.373q.285.907.569,1.815c.014.078.035.175.064.3s.061.252.094.386.062.259.087.378.045.213.058.278l.021.1.358.139.024-.248a1.149,1.149,0,0,1,.047-.215c.028-.1.061-.2.1-.3s.073-.211.111-.314.072-.2.1-.281l.613-1.5-.178-.072-.423-.168V1074.7c.757.3,1.519.617,2.268.938v1.529l-.274-.117-.164-.069-.072.168c-.6,1.389-1.212,2.8-1.814,4.193l-.016.038v1.936l.119.047.432.173Z" transform="translate(-1563.413 -1073.762)" fill="#cccccf"/>
        <path id="패스_84" data-name="패스 84" d="M1620.47,1067.065c.888.305,1.78.625,2.658.956v1.129l-.021-.008-.708-.265.234.746q.283.9.565,1.8c.015.079.036.177.065.3s.061.252.094.387.061.256.086.373.045.208.058.276l.042.207.19.074.036.014h0l.447.173.047-.5a.983.983,0,0,1,.04-.177c.028-.094.059-.194.094-.3s.071-.206.109-.309.072-.2.1-.281l.535-1.307.15-.366-.356-.143-.305-.122v-1.122c.635.255,1.272.519,1.9.787v1.115l-.021-.009-.328-.139-.146.337c-.607,1.4-1.217,2.813-1.814,4.194l-.032.075v2.109l.237.094.313.125v1.155c-.8-.318-1.615-.627-2.423-.923v-1.163l.075.028.49.18v-2.4l-.021-.062c-.636-1.856-1.284-3.737-1.928-5.593l-.061-.176-.171-.058-.235-.08Zm-.368-.529v1.945l.488.165q.969,2.793,1.927,5.591v1.793c-.226-.083-.339-.124-.565-.206v1.975q1.59.577,3.159,1.208v-1.975l-.55-.221v-1.763q.906-2.1,1.813-4.193l.527.226v-1.945q-1.312-.562-2.636-1.088v1.945l.541.215-.541,1.32q-.039.121-.1.28t-.113.321q-.054.161-.1.311a1.378,1.378,0,0,0-.054.252l-.04-.015c-.013-.066-.033-.16-.059-.281s-.056-.25-.089-.384-.064-.262-.094-.385-.051-.222-.064-.3q-.286-.914-.573-1.828l.514.194v-1.945q-1.687-.639-3.394-1.215" transform="translate(-1558.773 -1067.387)" fill="#fff"/>
      </g>
    </g>
  </g>
</svg>
