<?xml version="1.0" encoding="utf-8"?>
<!-- Generator: Adobe Illustrator 27.5.0, SVG Export Plug-In . SVG Version: 6.00 Build 0)  -->
<svg version="1.1" id="레이어_1" xmlns="http://www.w3.org/2000/svg" xmlns:xlink="http://www.w3.org/1999/xlink" x="0px"
	 y="0px" viewBox="0 0 42 42" style="enable-background:new 0 0 42 42;" xml:space="preserve">
<style type="text/css">
	.st0{fill:#FFFFFF;}
</style>
<path class="st0" d="M35.6,7.7C35.6,7.7,35.6,7.6,35.6,7.7C32.8,6.4,29.9,5.5,27,5c-0.1,0-0.1,0-0.2,0.1c-0.3,0.7-0.8,1.4-1,2.2
	c-3.1-0.5-6.4-0.5-9.6,0c-0.3-0.8-0.7-1.5-1-2.2C15,5,15,5,14.9,5c-3,0.5-5.9,1.4-8.6,2.6c0,0,0,0-0.1,0.1
	c-5.4,8.1-6.9,16.1-6.2,23.9c0,0,0,0.1,0.1,0.1C3.3,34,6.9,35.8,10.7,37c0.1,0,0.1,0,0.2-0.1c0.8-1.1,1.5-2.3,2.1-3.5
	c0-0.1,0-0.2-0.1-0.2l0,0c-1.1-0.4-2.2-1-3.2-1.6c-0.1,0-0.1-0.1-0.1-0.2l0,0c0.3-0.2,0.4-0.3,0.6-0.5c0,0,0.1,0,0.2,0
	c6.9,3.1,14.3,3.1,21.1,0c0,0,0.1,0,0.2,0c0.2,0.2,0.4,0.3,0.6,0.5c0.1,0,0.1,0.1,0,0.2l0,0c-1,0.6-2.1,1.1-3.2,1.6
	c-0.1,0-0.1,0.1-0.1,0.2l0,0c0.6,1.2,1.3,2.4,2.1,3.5c0,0.1,0.1,0.1,0.2,0.1c3.8-1.1,7.3-3,10.5-5.3l0.1-0.1
	C42.7,22.5,40.3,14.7,35.6,7.7z M14,26.8c-2.1,0-3.8-1.9-3.8-4.2s1.7-4.2,3.8-4.2s3.8,1.9,3.8,4.2C17.8,24.9,16.1,26.8,14,26.8z
	 M28,26.8c-2.1,0-3.8-1.9-3.8-4.2s1.7-4.2,3.8-4.2s3.8,1.9,3.8,4.2C31.7,24.9,30.1,26.8,28,26.8z"/>
</svg>
