<?xml version="1.0" encoding="utf-8"?>
<!-- Generator: Adobe Illustrator 27.5.0, SVG Export Plug-In . SVG Version: 6.00 Build 0)  -->
<svg version="1.1" id="레이어_1" xmlns="http://www.w3.org/2000/svg" xmlns:xlink="http://www.w3.org/1999/xlink" x="0px"
	 y="0px" viewBox="0 0 42 42" style="enable-background:new 0 0 42 42;" xml:space="preserve">
<style type="text/css">
	.st0{fill:#FFFFFF;}
</style>
<path id="합치기_88" class="st0" d="M18.8,40c-3.2,0-3.9,0-5.5-0.1c-1.6,0-3.2-0.4-4.6-0.9c-1.3-0.5-2.4-1.2-3.4-2.3
	c-0.9-0.9-1.7-2.1-2.2-3.3c-0.5-1.5-0.9-3-0.9-4.6C2,26.8,2,26.2,2,21s0-5.8,0.1-7.9c0-1.6,0.3-3.2,0.9-4.6c0.5-1.3,1.3-2.4,2.2-3.3
	S7.2,3.4,8.5,3c1.5-0.5,3-0.9,4.6-0.9C15.2,2,15.8,2,21,2h2.3c3.1,0,3.8,0,5.5,0.1c1.6,0,3.2,0.3,4.6,0.9c1.3,0.5,2.4,1.2,3.4,2.2
	c0.9,0.9,1.7,2.1,2.3,3.3c0.5,1.5,0.9,3,0.9,4.6c0,2,0,2.7,0,7.9s0,5.9-0.1,7.9c0,1.6-0.4,3.2-0.9,4.6c-0.5,1.3-1.2,2.4-2.3,3.4
	c-0.9,0.9-2.1,1.7-3.3,2.3c-1.5,0.5-3,0.9-4.6,0.9c-2-0.1-2.6-0.1-7.7-0.1H18.8z M21,11.3c-2.6,0-5.1,1-6.9,2.8s-2.8,4.3-2.8,6.9
	s1,5.1,2.8,6.9c1.8,1.8,4.3,2.8,6.9,2.8l0,0c2.6,0,5.1-1,6.9-2.8c1.8-1.8,2.8-4.3,2.8-6.9C30.8,15.7,26.3,11.3,21,11.3L21,11.3z
	 M31.1,9.1c-0.6,0-1.2,0.3-1.6,0.6s-0.6,1-0.6,1.6c0,1.3,1,2.3,2.3,2.3l0,0c1.3,0,2.3-1,2.3-2.3S32.4,9.1,31.1,9.1L31.1,9.1z
	 M21,27.4L21,27.4c-3.5,0-6.3-2.8-6.3-6.3s2.8-6.3,6.3-6.3l0,0c3.5,0,6.3,2.9,6.3,6.3c0,1.6-0.6,3.3-1.8,4.5S22.6,27.4,21,27.4
	L21,27.4z"/>
</svg>
