<?xml version="1.0" encoding="utf-8"?>
<!-- Generator: Adobe Illustrator 27.5.0, SVG Export Plug-In . SVG Version: 6.00 Build 0)  -->
<svg version="1.1" id="레이어_1" xmlns="http://www.w3.org/2000/svg" xmlns:xlink="http://www.w3.org/1999/xlink" x="0px"
	 y="0px" viewBox="0 0 42 42" style="enable-background:new 0 0 42 42;" xml:space="preserve">
<style type="text/css">
	.st0{fill:#FFFFFF;}
</style>
<path id="합치기_66" class="st0" d="M0,24.4c0-6.6,5.3-11.9,11.9-11.9l0,0c6.6,0,11.9,5.4,11.9,11.9l0,0
	c0,6.6-5.3,11.9-11.9,11.9l0,0C5.3,36.3,0,31,0,24.4L0,24.4z M24.9,24.6c0-6.2,2.6-11.3,5.9-11.3c3.2,0,5.9,5,5.9,11.3
	s-2.6,11.3-5.9,11.3S24.9,30.8,24.9,24.6z M37.9,24.3c0-5.6,0.9-10.1,2.1-10.1S42,18.7,42,24.3s-0.9,10.1-2.1,10.1
	S37.9,29.9,37.9,24.3L37.9,24.3z"/>
</svg>
