<?xml version="1.0" encoding="utf-8"?>
<!-- Generator: Adobe Illustrator 27.5.0, SVG Export Plug-In . SVG Version: 6.00 Build 0)  -->
<svg version="1.1" id="레이어_1" xmlns="http://www.w3.org/2000/svg" xmlns:xlink="http://www.w3.org/1999/xlink" x="0px"
	 y="0px" viewBox="0 0 42 42" style="enable-background:new 0 0 42 42;" xml:space="preserve">
<style type="text/css">
	.st0{fill:#FFFFFF;}
</style>
<path id="패스_2446" class="st0" d="M37.6,13c0,0.3,0,0.7,0,1.1c0,11.4-8.6,24.4-24.4,24.4l0,0c-4.7,0-9.3-1.3-13.2-3.8
	c0.7,0.1,1.4,0.1,2,0.1c3.8,0,7.6-1.3,10.7-3.7c-3.7-0.1-6.9-2.4-8-5.9c1.3,0.3,2.6,0.2,3.8-0.2c-4-0.8-6.9-4.4-6.9-8.5v-0.1
	c1.2,0.7,2.5,1,3.9,1C1.7,15,0.5,10,2.9,6.1c4.4,5.4,10.8,8.6,17.7,9c-1-4.6,1.8-9.3,6.5-10.3c3-0.7,6.1,0.2,8.2,2.4
	c1.9-0.3,3.8-1,5.5-2.1c-0.6,2-2,3.7-3.8,4.7c1.7-0.2,3.4-0.7,5-1.3C40.8,10.3,39.3,11.8,37.6,13"/>
</svg>
